<?xml version="1.0" encoding="utf-8"?>
<svg viewBox="0 0 500 500" xmlns="http://www.w3.org/2000/svg">
  <ellipse style="stroke: rgb(0, 0, 0); fill: rgb(255, 255, 255);" cx="279.595" cy="249.559" rx="162.989" ry="121.145"/>
  <path opacity="1.000000" stroke="none" d="M 218.841 4.973 C 238.979 4.973 259.117 4.973 279.589 5.366 C 280.412 6.11 280.859 6.683 281.392 6.78 C 288.804 8.12 296.262 9.223 303.642 10.716 C 332.021 16.459 358.049 27.939 382.347 43.48 C 402.194 56.174 419.592 71.647 435.13 89.391 C 447.97 104.054 458.89 119.979 467.815 137.186 C 480.933 162.478 489.649 189.263 492.914 217.698 C 492.992 218.379 494.108 218.942 494.739 219.56 C 494.739 239.698 494.739 259.836 494.342 280.315 C 493.582 281.305 493.031 281.911 492.881 282.604 C 490.019 295.925 487.968 309.477 484.223 322.543 C 475.99 351.27 461.894 377.054 443.595 400.729 C 430.015 418.299 414.423 433.747 396.809 447.023 C 379.573 460.012 360.873 470.732 340.647 478.565 C 321.85 485.846 302.597 491.357 282.494 493.622 C 281.655 493.716 280.93 494.823 280.152 495.458 C 260.014 495.458 239.876 495.458 219.402 495.065 C 216.244 493.987 213.458 493.041 210.598 492.658 C 186.385 489.423 163.501 481.809 141.673 471.134 C 122.673 461.841 105.121 450.254 89.113 436.28 C 75.55 424.441 63.083 411.594 52.422 397.166 C 41.956 382.998 32.902 367.915 25.691 351.723 C 15.917 329.776 8.864 307.136 6.09 283.218 C 5.993 282.376 4.889 281.651 4.254 280.871 C 4.254 260.733 4.254 240.595 4.651 220.117 C 5.73 216.634 6.601 213.52 7.068 210.347 C 10.567 186.532 18.05 163.955 28.538 142.384 C 37.803 123.33 49.516 105.872 63.444 89.836 C 75.144 76.363 87.932 64.076 102.159 53.403 C 119.456 40.426 138.151 29.743 158.341 21.852 C 177.115 14.514 196.39 9.058 216.496 6.808 C 217.336 6.715 218.062 5.608 218.841 4.973 M 369.452 169.155 C 361.891 160.918 353.156 160.821 344.983 168.989 C 302.522 211.427 260.072 253.875 217.673 296.376 C 216.372 297.68 215.691 299.604 214.23 302.065 C 211.7 298.979 210.693 297.515 209.458 296.277 C 190.849 277.629 172.239 258.983 153.565 240.401 C 146.579 233.449 137.267 233.103 130.961 239.352 C 124.747 245.511 125.039 255.149 131.852 261.983 C 155.185 285.389 178.551 308.763 201.967 332.086 C 209.224 339.313 217.921 339.351 225.217 332.067 C 272.564 284.805 319.86 237.494 367.135 190.161 C 373.32 183.968 374.061 177.582 369.452 169.155 Z" style="" fill="#4BAE4F"/>
</svg>