<svg id="eBnfk8e7aVo1" xmlns="http://www.w3.org/2000/svg" xmlns:xlink="http://www.w3.org/1999/xlink" viewBox="0 0 213 113" shape-rendering="geometricPrecision" text-rendering="geometricPrecision"><path d="M108.345703,54.240234h-.086914.086914q.391113.130371.391113.260743q0,.173828-.195556.369384t-.456299.369385l-.260742.173828q-.217285.130371-.260742.543213t-.260743.58667q-.304199.391113-.738769.521484t-1.02124.173829-.847412.130371q-.043458,0-.130372.043457t-.130371.043457q-.130371,0-.43457-.086914t-.43457-.086914h-.173828q-.173829,0-.521485.043457t-.478027.043457q-.43457,0-.43457-.173828l.086914-.086915q-.086914.086915-.434571.347657-.651855.43457-1.086425.43457-.695313,0-.956055-.695312-.347656.260742-.456299.782226t-.456299.782227q0,.173828-.195556.564941t-.239014.608398q0,.173829-.086914.58667t-.086914.58667q0,.608399.086914.782227.086914.43457.086914,1.60791v.608398q.173828.695313.173828,1.868653q0,.912597-.173828,1.17334.260742-.260743.608398-.260743.564942,0,.564942.695313q0,.173828-.130371.43457-.173829.391114-.803955,1.021241t-.673584,1.064697q.043457,0,.130371-.065186t.130371-.065185q.347656,0,.347656.391113q0,.347656-.347656.695312-.086914.086915-.086914.260743v.260742.086914q.173828.521484.173828.999512q0,.825683-.260742,1.868652-.086914.260742-.086914.695312q0,.564942.260742,1.607911t.260742,1.60791v.347656q0,.217285.043457.630127t.043457.630127q0,1.129883-.260742,3.520019t-.260742,3.52002q0,1.086426.086914,1.60791.217285-.217285.43457-.217285.43457,0,.43457.391113q0,.3042-.260742.434571-.478027.304199-.543213.412841t-.108642.543213q-.043457.130371-.043457.217285q0,.173829.391113.412842t.391113.456299q0,.173828-.086914.260742-.086914.130371-.239014.282471t-.217285.239014-.065185.217285q0,.260742.086914.43457.912597-.608398,1.129883-.564941.304199.173828.304199.391113q0,.304199-.391113.521484-.043457.043457-.456299.3042t-.499756.391113q.086914.43457.086914,1.260254q0,.738769.173828,2.477051.347656.695312.347656,1.520996.347657-.173828,1.17334-.173828.782227,0,.782227.347656q0,.260742-.086914.347656.173828.043457.630127.217285t.630127.173828q.260742,0,.43457-.086914.608398-.304199,2.477051-.304199.956054,0,1.738281.108643t1.303711.325927.43457.564942q-.043457.173828-.325928.369384t-.28247.325928v.478028.173828q.086914.173828.086914.782226q0,.651856-.086914.825684.086914.260742.086914.956055q0,1.30371-.260742,1.955566v.347656q0,1.955567-1.086426,2.433594-.347656.173828-1.042969.173828-.478027,0-.825684-.173828-.521484.173828-1.129882.173828h-.347657q-.260742-.086914-.912597-.086914h-.782227q-.304199,0-.630127-.043457t-.456299-.043457q-.347656,0-.695312.173828-.086914.086914-.260742.086914-.130371,0-.651856-.173828-.173828.086914-.695312.086914-.478028,0-.73877.086914-.391113.260742-.782226.260742-.347657,0-.608399-.260742-.391113.260742-1.17334.260742h-.43457q-.564941,0-.825684-.260742h-.260742q-.825683,0-1.216797-.260742-.173828.086914-.564941.086914h-.608398-.347657q-.086914,0-.347656.043457t-.391113.043457q-.695313,0-1.216797-.173828-.347656.173828-1.17334.173828h-.260742q-.73877-.217285-1.694824-.347656-.130371,0-.391114.043457t-.391113.043457h-.217285q-.869141.43457-2.129395.43457-.173828,0-.456298-.043457t-.412842-.043457q-.347656-.086914-1.086426-.086914h-1.216797-.651855q-1.520996-.217285-1.781739-.260742-.521484.173828-.956054.173828-.260743,0-.347657-.086914h-.304199q-.217285,0-.630127.130371t-.673584.130371q-.304199,0-.478027-.086914-.173828.086914-.43457.086914-.825684,0-1.129883-.912598-.086914.086915-.304199.086915-.347657,0-.347657-.521485v-.173828q.043457-.217285.325928-.543213t.325928-.543213v-1.042968q0-.825684.086914-1.086426-.086914-.434571-.086914-1.434082v-.521485q-.217285-.86914-.217285-1.520996q0-.521484.130371-.782226.347656-.782227,2.303222-.782227.173829,0,.434571.130371t.43457.130371h1.086426q.521484.043457,1.368896-.28247t1.108155-.369385h.347656.738769q.086914-.086914.260743-.086914h.347656.173828q-.086914-.086914-.086914-.347656q0-.3042.173828-.673584t.564941-.89087l.434571-.564941q.260742-.260742.260742-.782227v-.912597q-.173828-1.738281-.173828-2.868164q0-1.216797.086914-1.738282v-1.260253q-.043457-.130372-.239014-.217286t-.282471-.217285l-.086914-.173828q0-.173828.260743-.478027t.260742-.434571q-.173828-.173828-.173828-.695312q0-.086914-.239014-.325928t-.239014-.325928q0-.043457.217285-.260742v-.695312q0-.130371-.043457-.391113t-.043457-.347657q0-.608398.260743-1.129883.173828-.521484.173828-.825683q0-.217285-.043457-.630127t-.043457-.58667q-.043457-.260742-.086914-.325928t-.195557-.086914-.369385-.152099q-.260742-.260743-.260742-.434571q0-.304199.260742-.43457.564942-.347656.564942-.608398v-.825684q-.173829-.695313-.173829-1.434082q0-.173828.043457-.478027t.043458-.391114q0-.130371-.043458-.58667t-.043457-.760498q0-1.086425.173829-1.955566-.173829-.869141-.173829-1.781738q0-1.17334.173829-2.216309-.173829.173828-.412842.956055t-.58667.999511q0,.391114-.608399.999512v.173828q0,.608399-.347656,1.129883-.217285.478027-.825683,2.042481-.043457.086914-.173829.782226t-.347656.912598q-.217285.651855-.847412,1.694824t-.847412,1.694824q-.086914.260742-.304199.760498t-.304199.760498q-.043457.086914-.391114.695313t-.43457.912597q-.521484,1.607911-.695313,1.868653-.260742,1.303711-.347656,1.520996v.173828q0,.391113-.564941.782227v.173828q0,.738769-.608399,1.17334-.217285.173828-.325927.347656t-.217286.391113-.239013.391113q0,.217286-.260742.608399t-.3042.478027q-.173828.521485-.347656.782227q0,.043457-.086914.608398t-.173828.825684q-.043457.130371-.195557.977783t-.499756,1.151611q0,.173828-.325927.717041t-.499756.717041l.173828-.086914q.217285,0,.391113.173828t.173828.347657v.086914q-.086914.173828-.239013.369384t-.391114.391114-.28247.239013q-.347657.347657-.869141.695313q0,.43457-.217285.738769-.130371.173829-.173828.564942t-.173828.564941q-.043457.217285-.260742.760498t-.260743.760498q-.043457.086914-.173828.478028t-.260742.521484q.043457.260742-.195557.825684t-.239013.695312q-.086914.173828-.239014.564942t-.239014.564941q-.043457.130371-.065185.282471t-.021729.260742-.043457.217285-.130371.217285-.260742.195557q-.260742.130371-.456299.478027t-.325928.478027q-.608398.73877-1.60791.73877-.608398,0-.999511-.260742-.825684.608398-1.347168.608398-.173829-.043457-.325928-.260742t-.282471-.260742q-.347656,0-.521484-.086914-.391114.260742-.825684.260742h-.173828q-.173828-.086914-.43457-.086914-.130371,0-.391114.043457t-.478027.043457q-.738769,0-1.303711-1.238525t-.651855-2.151123q-.73877-1.347168-1.17334-2.78125-.347656-.695313-.43457-1.042969-.086915-.086914-.173829-.086914h-.130371-.173828q-.347656-.130371-.347656-.564942q0-.086914.043457-.347656t.043457-.347656v-.173828q-.260742-.347657-.543213-1.042969t-.412842-.912598q-.173828.173828-.564941.173828-.608399,0-.608399-.43457q0-.391113.260743-.651855.260742-.391114.260742-.521485q0-.347656-.086914-.521484-.347656.347656-.695313.347656h-.086914q-.347656,0-.347656-.347656-.391113,0-.73877-.173828-.173828-.086914-.173828-.347656q0-.434571,1.520996-1.434082-.086914-.217286-.347656-.673584t-.347656-.673584q-.564941-.695313-.847412-2.216309t-.58667-2.042481q-.825684-1.30371-1.17334-2.390136-.043457-.130371-.108643-.304199t-.108642-.217286-.130371-.043457-.260742.086914h-.173829q-.738769,0-.738769-.608398q0-.086914.217285-.521484.347656-.478028.347656-.564942q0-.260742-.086914-.43457-.260742-.521484-.347656-.782227-.347656-.478027-.478027-1.086425l-.173828-.173829h-.086914q-.173829.086914-.347657.086914t-.173828-.260742l.260742-.825683q-.304199-.347657-.717041-1.195069t-.543213-1.108154q-1.216796-2.433594-1.216796-3.085449-.564942-.521485-.825684-2.520508-.130371-.260742-.260742-.260742-.043457,0-.1521.043457t-.195556.043457h-.173829q-.347656-.130371-.347656-.43457q0-.217286.239014-.695313t.195556-.564941q-.651855-1.260254-1.260253-2.998535-.608399.086914-.608399,1.042968v.912598q.347656-.173828.869141-.173828.564941,0,.564941.260742q0,.217285-.217285.43457-.086914.130371-.391113.369385t-.521485.456299-.217285.347656.043457.43457.043457.434571v.260742q.043457,0,.130371-.043457t.130371-.043457q.260743,0,.260743.260742q0,.521484-.434571.825684v.521484.173828q.173828.869141.173828,1.347168.043457.260742.3042.325928t.391113.282471q.086914.086914.086914.260742t-.325928.543213-.369385.543213v.782226.478027q.086915.347657.086915,1.47754q0,1.520996-.173829,1.868652v.173828q0,1.042969-.43457,2.34668v.347656q0,.304199.130371.890869t.130371.890869q.086914.173828.086914.695313q0,.260742-.086914.43457l.173828.478027v-.173828-.086914q.086914.173828.347657.43457.086914.173829.086914.434571-.043457.304199-.434571.782226t-.43457.73877v1.260254q.217285-.217285.347656-.217285.521485,0,.521485.478027q0,.217285-.347657.43457-.608398.3042-.608398.695313.260742,2.346679.260742,2.520508.043457.260742.217285.803955t.217286.803955q.086914.173828.195556.43457t.1521.347656.173828.217285.325928.195557.499756.108643q3.302734.651855,5.171386.825683.260742-.173828.608399-.173828.86914,0,1.325439,1.434082t.456299,3.085449q0,.912598-.173828,1.434082.086914.086915.086914.521485q0,.738769-.260742,1.781738.130371.43457-.369385.847412t-.977783.325928q-.869141-.173828-1.347168-.173828-1.042969.173828-1.694824.173828h-.347657q-.347656-.043457-1.042968.304199t-1.086426.304199q-.956055,0-1.60791-.43457-.217286,0-.564942-.086914t-.564941-.086914q-.521485.347656-1.781738.347656h-1.781739-.173828-.651855q-.434571,0-.608399-.173828-.043457,0-.195556.043457t-.239014.043457-.282471-.043457-.282471-.043457q-.043457,0-.521484.173828t-.695312.173828h-.173829q-1.30371-.260742-1.434082-.260742t-.412841.043457-.412842.043457h-.173828q-.173828,0-.564942.086914t-.564941.086914h-.260742-.304199q-.608399,0-.869141.086914h-.173828q-.130371,0-1.17334-.260742-.695313.173828-1.955566.173828-1.086426,0-1.434083-.347656-.347656.173828-1.129882.173828-1.17334,0-1.60791-.43457-.608399-.260742-.608399-1.781738q0-.564942.260742-1.607911-.086914-.260742-.086914-.999511q0-.999512.173828-2.390137-.043457,0-.391113.173828t-.521484.173828q-.434571-.130371-.434571-.521484q0-.130371.260743-.260742.43457-.347657,1.086425-.651856v-.173828q0-.43457.521485-.956055.347656-.347656,1.17334-.347656.738769,0,1.129882.260742.043457,0,.130371.043457t.130372.043457q.217285,0,.586669-.130371t.58667-.130371q.173829,0,.543213.043457t.543213.043457q.695313,0,1.390625-.564941.260742-.173828.651856-.173828.173828,0,.456298.043457t.412842.043457q.260742,0,.434571-.086914v-.173828q0-.347657.347656-1.216797t.304199-1.260254q-.043457,0-.1521.043457t-.195556.043457q-.73877,0-.73877-.521484v-.086915q.086914-.260742.564942-.673584t.521484-.673583v-.260743q0-.260742.086914-.847412t.086914-.847412v-.260742q-.086914.086914-.347656.086914-.130371,0-.260742-.130371t-.130371-.260742q0-.217285.217285-.434571.347656-.260742.608398-.782226-.260742-1.564453-.260742-2.129395q0-.651855.086914-.825683-.086914-.260742-.086914-.956055q0-1.477539.260742-2.129395.086914-.173828.086914-.478027q0-.217285-.086914-.673584t-.086914-.630127q-.086914.086914-.260742.086914-.478027,0-.478027-.564941q0-.130371.130371-.260742.391113-.651856.43457-.956055q0-.651855.086914-.825684.173828-.347656.173828-1.042968q0-.73877.086914-1.086426v-.173828-.260742q0-.347657-.260742-.434571-.260742-.130371-.260742-.304199t.217285-.412842.217285-.28247q-.173828-1.216797-.173828-2.129395v-.782227q0-.130371-.043457-.651855t-.043457-.869141q0-1.086425.173828-2.129394-.086914-.347656-.086914-1.694824v-.825684-.260742q-.173828-.521485-.173828-1.17334q0-.956055.347656-1.303711-.173828-.347656-.173828-.999512q0-1.260254.173828-1.955566q0-.086914-.043457-.217285t-.043457-.217285q0-.130372.043457-.478028t.043457-.521484q0-.260742-.086914-.43457t-.217285-.521485-.217285-.521484q-.086914-.130371-.195557-.412842t-.260742-.456299-.369385-.217285q-.130371-.086914-.58667-.108643t-.630127-.152099q-.347656.086914-1.520996.086914-.521484-.173828-.651855-.521484-.043457,0-.130371.043457t-.130371.043457-.130371-.043457-.130372-.043457q-.086914,0-.260742.043457t-.260742.043457q-.130371,0-.347656-.043457t-.304199-.043457q-.130371-.043458-.934327-.130372t-1.434082-.260742-.630127-.43457q0-.043457.043457-.086914t.043458-.086914q-.608399-.73877-.608399-2.824707q0-1.086426.260742-1.60791-.86914.43457-.999511.43457-.347657,0-.347657-.43457q0-.347657.673584-.869141t.673584-.825684q-.173828-.695312-.173828-1.086425q0-1.086426.869141-1.694825.347656-.173828.999511-.173828.130372,0,.325928.043457t.282471.043457q.695312-.173828,1.347168-.173828.521484,0,.782226.173828.391114-.260742,1.17334-.260742.564942,0,1.868653.260742.260742.086914.717041.108643t.58667.065185l.738769.260743q.782227-.260743.869141-.260743.260742,0,.478027.086915t.260742.086914.173828-.043457.173829-.043457h.956054q.086914,0,.412842.043457t.412842.043457q.782226-.260743,1.694824-.260743.478027,0,1.520996.173829.347656-.173829.608399-.173829.43457,0,.956054.173829h.391114q.173828,0,1.390625-.347657.521484-.173828.825683-.173828.391113,0,1.129883.195557t.999512.239013q.173828,0,.86914.130372t.999512.130371h.260742q.173828-.043457.564942-.239014t.608398-.195557q.173828,0,.43457-.130371t.434571-.130371q.130371,0,.239013.021729t.1521.065185.1521.130371.195556.130371q.043457,0,.1521-.043457t.195556-.043457q.782227,0,1.129883.521485.173828-.173828.564942-.173828.130371,0,.347656.086914t.347656.086914q.043457,0,.130371-.043457t.130371-.043457q1.042969-.695313,1.260254-.695313.086914-.086914.260742-.086914.260743,0,.260743.347656q0,.434571-.347657.651856-.86914.608398-.86914.782226q0,.086914.260742.608399.304199.608398.782226,1.76001t.521485,1.281982q.782226-.260742.912598-.260742.43457,0,.521484.43457.086914.347656-.260742.977783t-.347657.803955q0,.043457.043457.086914t.043458.086915q.130371.217285.347656.673583t.347656.673584q.564941.956055,1.260254,3.107178t1.260254,3.107178q.651855,1.086426,1.45581,3.476562t1.368897,3.389649q.43457.738769.608398,1.781738.521485.695313.651856,1.347168.912597,1.042969,1.347168,3.172363.130371.347657.347656.347657h.347656.260742q.521485.086914.521485.478027q0,.564941-.608399.956055.043457.086914.434571,1.60791.738769,1.434082,1.347168,3.302734.173828-.173828.521484-.347656.173828-.478027.260742-.564941.043457-.130372.239014-.564942t.239014-.564941q0-.521485.86914-2.042481.086914-.130371.369385-.651855t.369385-.782227q-.130371-.130371-.130371-.260742q0-.608398.478027-1.086426.260742-1.868652,1.216797-3.824218.043457-.956055,1.086426-2.238038t1.173339-1.499267q-.912597.130371-.912597-.347656q0-.521485.673584-1.520996t.934326-1.17334q.478027-.478028.760498-1.542725t.58667-1.45581.630127-1.32544.58667-1.281982q0-.217286.217285-.630127t.260742-.58667q0-.73877.608399-1.347168q0-.73877.521484-1.60791q0-.347657.651855-1.955567.130372-.347656.369385-1.02124t.325928-.934326q.217285-.956055.347656-1.17334.347656-.782227,1.32544-1.499268t1.89038-.717041q.347657,0,.521485.086914.347656.173829.999512.173829.521484,0,.86914-.086914.260742-.260743.73877-.260743.130371,0,.43457.043457t.43457.043457h.521485h1.17334q.173828,0,.478027-.043457t.478027-.043457q.564942,0,.912598.347657.43457,0,.43457-.086914l-.260742-.173829q0-.086914.521484-.086914.086914,0,.282471.043457t.282471.043457h.173828q.391113-.260742.608398-.260742.130371,0,.999512.521485q1.390625-.608399,2.998535-.608399.043457,0,3.302735.260742.347656,0,.695312.173828.173828-.173828.391113-.173828.086914,0,.195557.043457t.1521.043457q.260742.086914.695312.086914.564942,0,.73877.086915h.347656q.738769,0,1.781738.173828.260742-.086914.869141-.086914h.825683q.130372,0,.456299-.043457t.499756-.043457h.260742.260743q.217285,0,.738769-.086915t.782227-.086914q.738769,0,1.260254.651856.956054-.478027,1.129882-.478027.391114,0,.391114.260742q0,.217285-.086914.304199-.130372.521484-1.347168,1.477539-.086914.260742-.086914.825684q0,.260742.043457.847412t.043457.847412v.43457q.173828-.173828.521484-.173828.260742,0,.260742.260742q0,.564942-.608398.825684.43457.086914.43457.43457q0,.260742-.173828.43457h.347656Zm-2.824707-3.128906q.043457.130371-.521484.543213t-1.412354.956055-1.673095,1.064697-1.542725.934326-.803955.499756q.391113,0,.695312.304199.130371.130371.217285.391114t.130372.43457v.217285q.130371-.999512,1.694824-1.434082.391113-.173828,1.195068-.564941t1.195069-.564942q.782226-.478027.825683-.651855v-.608399-.521484-.999512ZM96.177734,66.799316q0-.173828-.086914-.173828-.043457,0-.564941.521485-.782227.521484-1.564453,1.17334-.391113.260742-1.368897.956054t-1.499267,1.086426q-3.911133,2.737793-5.171387,3.824219q1.17334-.695313,3.585205-2.129395t3.628662-2.172851q.086914-.043457.803955-.478028t1.151612-.651855q.478027-.260742.564941-.369385t.347656-.543213q0-.521484.173828-1.042969ZM75.231445,76.924805l-.347656.130371v.043457q.086914-.086914.347656-.173828.217285-.130371.391114-.499756t.260742-.456299q-1.781738.782227-6.605469,4.258789-.521484.304199-1.412353.977783t-1.412354.977783q-.521484.347657-.717041.543213t-.369385.717041q.086914-.173828.325928-.391113t.58667-.43457.43457-.260742q.521485-.347657,1.586182-1.108155t1.629639-1.108154q3.65039-2.520508,5.301757-3.21582Zm-7.909179,1.694824v.173828q3.693847-2.650879,5.866699-3.911133.086914-.043457.630127-.391113l1.086426-.695313q0,0,1.129882-.760498t.956055-.760498.325928-.521484q-2.694336,1.60791-5.345215,3.389648-.608398.347657-1.803467,1.064698t-1.586181.977783q-.3042.217285-.478028.369385t-.412842.521484-.369384.543213ZM83.270996,63.23584q0,.130371.977783-.543213t1.499268-1.064697q-.086914.086914-.564942.260742t-.782226.173828q-.43457,0-.43457-.347656q0-.173828.086914-.260742-.608399.43457-1.216797.695312.43457.43457.43457,1.086426Zm16.817871-13.341309q-1.781738,1.17334-7.648437,5.041016t-9.08252,5.99707q3.780762-2.172851,10.929444-6.322998t8.104736-4.715088q-.086914-.086914-.43457-.086914-.217286,0-.717041.086914t-.717041.086914q-.086915,0-.217286-.043457t-.217285-.043457Zm-3.563476,6.214356q.912597-.608399,3.845947-2.542237t4.497803-3.06372Q104,51.067871,98.828613,54.175049t-7.822265,4.888916q-.912598.695312-2.78125,1.955566t-2.824707,1.955567q-1.042969.564941-1.781739,1.216797-.347656.217285-.347656.478027v.43457.260742q1.825195-1.60791,3.845947-3.06372t5.28003-3.541748t4.128418-2.650879Zm-.608399,4.084961l-.086914.086914q.086914,0,.086914-.086914-1.477539,1.477539-4.649902,3.911132t-3.911133,3.041993q-2.477051,2.129394-3.476562,3.476562-.521485.521485-.521485.869141v.086914q.391113.043457.934326-.260742t1.238526-.825684.825683-.608398q.912598-.651856,2.650879-1.977295t2.607422-1.933838q1.825195-1.477539,2.78125-2.042481.130371-.086914.630127-.325927t.803955-.478028.347656-.499756q-.130371-.304199-.173828-.717041t-.043457-.934326-.043457-.782226Zm-.651855,4.171875l-.173828.217285q0-.130371.173828-.217285-.869141.651855-1.042969.738769.173828-.086914,1.042969-.738769ZM83.184082,72.579102q.086914,0,.260742-.173829h-.260742v.173829Zm2.390137-4.997559l.260742-.173828-.608398.521484.347656-.347656q.521484-.391113,1.499267-1.238525t1.455811-1.238526q-3.259277,1.999024-4.649902,2.477051-.086915.043457-.239014.108643t-.173828.086914l-.086914.086914q0,0-.108643.152099t-.086914.3042q0,.130371-.043457.412841t-.043457.456299q0,.130371.043457.456299t.043457.456299q1.042969-1.303711,2.390137-2.520508Zm8.083008-11.298828q1.216796-.956055,2.607421-1.781738-4.432617,2.520507-11.646484,6.692382.304199.086914.847412-.173828t1.281983-.738769.782226-.521485q.999512-.608398,3.063721-1.738281t3.063721-1.738281ZM79.70752,66.88623q0,.043458-.130372.130372t-.28247.173828-.195557.130371l.391113-.130371q.086914,0,.130371-.086914.043458-.130371.086915-.217286Zm3.389648,10.212403q.173828-.130371,1.390625-.869141-.521484.347656-1.390625.608399-.086914.086914-.086914.173828Zm.521484-1.60791v-.173828q-.086914,0-.086914.173828h.086914q0-.391114.391114-.869141t.782226-.782227t1.064697-.760498.717041-.499755q1.390625-1.086426,5.432129-3.911133-3.520019,1.955566-5.910156,3.389648-.999512.521485-2.737793,1.564453-.260742.173828-.260742,1.17334v1.086426q.260742-.130371.521484-.391113ZM96.264648,64.930664q0-.043457-1.825195,1.086426t-2.433594,1.564453q.564942-.260742,2.303223-1.216797.130371-.086914.673584-.369385t.890869-.543213.391113-.521484Zm.695313-7.474609v-.086914.086914q0-.478028.086914-.651856-4.562988,2.911621-8.995605,5.997071-2.390137,1.651367-3.563477,2.650878-.043457.043457-.260742.217286t-.304199.239013-.239014.217285-.239014.282471-.173828.282471-.086914.282471q.73877-.217286,1.60791-.630127t1.434082-.760498t1.542725-.999512l1.368896-.912598q.086914-.043457,1.890381-1.347168t3.389649-2.259765t1.760009-.651856q.217286-.217285.434571-.977783t.347656-.977783Zm-2.824707-8.213379l-.086914.086914h.086914v-.086914q-.217285.173828-.695313.260742t-.651855.217285q-.564941.43457-1.260254.869141-.564941.347656-1.542725,1.064697t-1.542724,1.064697q-6.127442,4.041504-6.866211,4.562989-3.52002,2.303222-6.605469,4.606445-.260742.173828-.717041.58667t-.58667.499756q-.043457.130371-.086914.347656t-.086914.347656q-.564941,1.129883-.564941,1.347168q2.520507-1.303711,5.041015-2.737793t5.497315-3.237549t4.758545-2.889892t5.432129-3.36792t4.910644-3.063721q-.086914-.043457-1.694824-.304199-.999512,0-2.737793-.173828Zm-18.599609,9.51709q-.043457.043457-.086915.152099t-.086914.1521q2.433594-1.216797,6.214356-3.737305-.608399.304199-1.825195.956055t-1.564454.825683q-2.47705,1.042969-2.650878,1.651368Zm15.20996-9.256348q-.738769.391113-.738769.478027.391113-.217285.738769-.478027-1.434082.695312-5.2583,2.955078q2.694336-1.303711,5.2583-2.955078Zm-5.866699.217285q-.478027-.043457-.999511.260742t-.847413.630127-.847412.912598-.695312.760498q-.73877.73877-2.324951,2.259766t-2.411866,2.346679q1.564454-.912597,5.692872-3.520019t6.43164-3.867676q-.086914-.086914-.173828-.086914-.173828,0-.651855.239014t-.782227.239013q-.260742,0-.347656-.086914h-.173828q-.391114,0-.73877-.173828-.173828.086914-.521484.086914h-.608399Zm-3.389648.260742q-.304199,0-.825684-.043457t-.782226-.043457q-.956055.825684-1.260254,1.781739.173828-.086915.825683-.564942t1.216797-.803955.825684-.325928Zm-4.649903,5.12793v.130371-.130371q0,.478027-.086914.564941.782227-.825683,2.433594-2.433593t2.477051-2.390137q-.086914.043457-.630127.412842t-1.042969.717041-1.086426.630127-.890869.28247q-.173828,0-.347656-.173828-.217285.434571-.478027,1.303711t-.347657,1.086426Zm-2.129394,5.910156q.043457-.130371.391113-.391113t.825684-.58667.564941-.369385q.434571-.304199,1.347168-.890869t1.347168-.890869q-.304199.173828-1.195068.58667t-1.390625.717041-1.086426.803955-.803955,1.02124Zm-4.345703,4.780274l-.086914.086914.086914-.086914q-.43457.43457-.521485.738769.521485-.217285.521485-.738769Zm10.69043-4.432617q-2.129395,1.390625-6.083985,3.476562-.391113.260742-1.129883.651855t-.912597.478028q-.347657.173828-.434571.325928t-.130371.43457-.217285.499756q1.520996-.999512,8.908692-5.866699ZM69.45166,72.405273q0,.086915-.043457.217286t-.043457.217285q1.129883-.73877,3.36792-2.238037t3.324463-2.281494q.738769-.434571,1.955566-1.303711t1.60791-1.129883.608399-.695313.412842-1.02124.325927-.847412q-1.086425.608398-3.281005,1.868652t-3.324463,1.868653q-2.390137,1.434082-2.563965,1.520996-.564942.86914-.564942.956054-.043457.043457-.369384.478028t-.499756.521484q0,.304199-.282471.58667t-.325928.369385q0,.304199-.304199.912597ZM61.803223,83.791016q-.043457-.086914-.130371-.3042t-.130372-.304199q-.738769,1.086426-2.911621,2.390137-.86914.651855-2.694336,1.890381t-2.737793,1.933838q.782227-.434571,2.281495-1.32544t2.238037-1.325439q1.825195-.956055,3.041992-1.694824.999512-.651856,1.216797-.651856q0-.086914-.086914-.282471t-.086914-.325927ZM59.06543,77.098633l-.347657.173828q.347657-.086914.347657-.173828-.478028.260742-1.455811.847412t-1.499267.847412q3.172363-1.260254,2.955078-1.694824Zm.86914,2.04248L59.5,79.532227l.43457-.391114q-.173828.130371-5.2583,3.476563-.173829.086914-.760499.43457t-.86914.499756-.803955.478027-.847412.564942-.695313.58667-.630127.651855q.434571-.086914.890869-.282471t.977784-.478027.847412-.499756l.912597-.608398q0,0,.803955-.521485q1.999024-1.216796,4.302247-2.955078q1.216796-.608398,1.216796-1.042968q0-.043458-.043457-.1521t-.043457-.1521Zm.651856,1.434082l-.304199.260743.304199-.260743q-1.390625,1.520996-4.432617,3.889405t-4.041504,3.324463q.912597-.434571,1.999023-1.086426t1.825195-1.129883t1.977295-1.347168t1.76001-1.216797q.086914-.086914.325928-.217285t.391113-.239014.325928-.239013.260742-.282471.043457-.282471q-.304199-.564941-.43457-1.17334Zm-7.47461-.782226q2.216309-1.520996,5.214844-3.215821.391113-.260742.391113-.43457q0-.043457-.043457-.108642t-.086914-.195557-.086914-.217285q-.217285-.869141-.260742-.999512-.478027.347656-1.781738,1.303711t-1.91211,1.412353-1.738281,1.347168-1.825195,1.520997-1.564453,1.477539-1.564453,1.673095q.912597-.564941,2.62915-1.760009t2.62915-1.803467Zm-4.910644,4.606445l.695312-.347656-.695312.347656q2.824707-1.564453,5.779785-3.563476-.130371.086914-.912598.456298t-1.586181.782227-1.60791.890869-1.281983.869141-.391113.564941Zm7.387695-16.383301q-.782226.73877-2.433594,2.281494t-2.47705,2.281495q2.650879-1.868653,4.562988-2.78125.086914-.043457.239014-.086914t.195556-.065186.130371-.043457.130371-.065186.065186-.108642.021729-.1521q-.086915-.173828-.086915-.260742-.173828-.608398-.347656-.999512Zm1.347168,3.650391l-.086914.086914.086914-.086914q-1.260254,1.260254-8.126465,7.213867q1.303711-.782226,3.845948-2.238037t3.020263-1.76001q.043457-.043457.217285-.130371l.434571-.217285q0,0,.521484-.282471t.478027-.28247.347657-.260743l.130371-.086914q-.086914-.130371-.869141-1.955566Zm-2.607422-6.475098q.130371.173828-.086914.478028t-.651855.651855-.869141.651856-.847412.564941-.456299.304199q-.825683.782227-1.781738,1.651367t-2.129395,1.933838-1.868652,1.673096q.521484-.347656,3.911133-3.063721t5.432129-3.498291q-.564942-1.129883-.651856-1.347168ZM42.595215,71.058105q4.736816-2.78125,4.997558-2.955078.347657-.173828,1.955567-1.216797t2.933349-1.760009t1.586182-.543213q0-.043457-.043457-.130371t-.043457-.173828q-.043457,0-3.172363,1.673095t-5.758057,3.237549-2.455322,1.868652ZM51.764648,58.84668q-.043457-.086914-.195556-.608399t-.325928-.782226q-1.60791,1.434082-4.82373,4.258789t-4.823731,4.258789q5.345215-3.085449,9.430176-5.432129.260742-.173828.825684-.173828.347656,0,.347656.260742q0,.304199-.173828.478027-.695313.912598-1.586182,1.868653t-2.107666,2.151123-1.738281,1.760009q3.21582-2.346679,4.997558-3.128906q1.042969-.521484,1.694825-.521484h.260742q-.347657-.521485-.630127-1.17334t-.695313-1.846924-.456299-1.368896ZM40.552734,65.799805q8.34375-7.431153,9.51709-8.517578-.956054.391113-1.933838.956054t-2.390136,1.477539-1.890381,1.216797q-.260742.217285-1.347168.847412t-1.868653,1.238526-.825683,1.086425q.173828.173829.325928.478028t.260742.695312.152099.521485ZM38.119141,50.329102l-.782227.521484q.173828-.130371.803955-.499756t.977783-.630127q-.217285,0-.369384.086914t-.347657.282471-.28247.239014ZM19.997559,54.066406q2.824707-4.084961,2.911621-4.171875-1.216797.73877-2.129395,1.216797-.347656.173828-.456299.304199t-.130371.456299-.108642.58667q-.173828.521484-.173828.999512q0,.086914.043457.304199t.043457.304199Zm.086914-4.432617q.260742-.217285.347656-.217285h-.173828q-.173828,0-.173828.217285Zm15.644531,3.259277l-2.216309,1.347168q.043457-.043457.108643-.065185t.260742-.1521.369385-.239013.391113-.239014.412842-.260742.369385-.217285l.260742-.130372.043457-.043457q-.478027.3042-1.651367,1.086426l-1.890381,1.260254q0,0-1.781738.977783t-1.977295.673584q.173828.260742.825683,1.781739.912598-.999512,1.999024-1.977295t2.542236-2.172852t2.107666-1.803467ZM32.904297,62.80127l-1.086426.521484q.478027-.173828,1.086426-.521484-.173828.086914-1.064697.325927t-1.564454.564942-.673583.803955q0,.043457.043457.130371t.043457.130371q1.912109-1.216797,3.21582-1.955566Zm-1.086426-.564942q.391113-.130371.825684-.369385t.695312-.43457.260742-.239014q-.347656,0-1.781738,1.042969q1.955567-.782226,4.193604-2.129394t3.563476-2.303223t3.80249-2.78125q-7.387695,4.215332-11.55957,7.213867Zm-1.955566-.695312q1.086425-1.086426,2.585693-2.303223t2.498779-1.933838t3.020264-2.085937t2.672607-1.846924q-1.086425.695312-3.324462,1.977295t-3.36792,1.933838q-.651856.347656-1.846924,1.02124t-1.803467,1.02124q-.521484.304199-.521484,1.042969q0,.173828.043457.564941t.043457.608399ZM49.54834,53.979492l-1.868652,1.042969q1.868652-.956055,1.868652-1.042969-2.477051,1.303711-10.342774,5.953613-1.086425.608399-3.172363,1.91211t-3.128906,1.912109q-2.477051,1.520996-2.868164,1.781739-.43457.347656-.43457.912597v.608399q2.998535-2.172852,3.389648-2.390137q1.738281-1.17334,2.477051-1.17334.260742,0,.43457.086914t.478027.086914q.260743,0,.391114-.217285t.173828-.695312l.043457-.521485v-.260742q0-.521484.608398-.869141.173828-.173828.434571-.173828.478027,0,.825683.521485.086914.173828.130371.43457q0,.086914.043457.086914t.086914-.021729.1521-.065185.195557-.086914q-.434571-.086914-.434571-.43457q0-.521485.434571-.521485.173828,0,.260742.173828.304199,0,1.434082-.564941q1.781738-1.434082,5.171387-3.650391q1.260253-.738769,1.955566-1.216797.217285-.130371.695312-.28247t.651856-.282471q.173828-.086914.173828-.347656q0-.086914-.108643-.347657t-.152099-.347656Zm.695312,1.694824q.043457.043457-.499756.456299t-1.086425.803955-.717041.521485q1.60791-.956055,2.650879-1.17334q0-.260742-.347657-.608399ZM29.775391,69.276367l.173828-.173828q-.173828.086914-.173828.173828.651855-.564941,1.89038-1.586181t1.846924-1.542725q-.564941.260742-1.564453.803955t-1.564453.803955q-.695312.347656-.695312.825684q0,.086914.043457.304199t.043457.391113Zm1.955566-.608398l1.260254-.999512q-.391113.304199-1.260254.999512l-.347656.347656q1.60791-.869141,4.084961-2.477051.130371-.086914.391113-.239013t.369385-.239014.28247-.217285.282471-.282471.195557-.369385v-.260742-.738769q-.260742.173828-.543213.391113t-.456299.391113-.43457.456299-.434571.456299q-1.520996,1.390625-3.389648,2.78125Zm7.213867-1.694824v-.086915.086915Zm.695313-4.084961l.260742-.173829q-.173828.086915-.260742.173829.608398-.521485,1.60791-1.17334-1.216797.695312-1.60791,1.17334Zm-9.864746,9.256347l.782226-.651855-.782226.651855q.956054-.782226,2.868164-2.303222t2.824707-2.259766q-.478028.260742-2.020752,1.216797t-2.411865,1.390625q-.086915.043457-1.17334.608398-.173828.086914-.173828.434571q0,.130371.043457.478027t.043457.43457Zm4.736816-2.694336l.347656-.347656-.347656.347656-.173828.130371q-.173828.130372-.217285.217286.043457-.043457.890869-.564942t1.325439-.934326.478028-.717041q-.391114.304199-1.151612.934326t-1.151611.934326ZM51.330078,53.371094v-.130371.130371q.173828-.347656.173828-.391114l-.260742.086915q0,.043457.043457.152099t.043457.1521ZM40.378906,58.238281l1.955567-1.129883q-1.868653,1.042969-1.955567,1.129883Q43.290527,56.5,47.592773,54.066406q.043457-.043457.478028-.260742t.738769-.412842.260743-.325927q-.217286-.695313-.347657-.869141-2.911621,2.34668-8.34375,6.040527Zm7.213867-8.604492q-.608398.260742-1.716552,1.108154t-1.412354,1.021241q-.608398.391113-1.781738,1.238525t-1.781738,1.238525q-5.258301,3.737305-6.127442,4.432618-.130371.086914-1.151611.825683t-1.368897,1.02124-1.02124.869141-1.108154,1.108154q3.606933-2.868164,10.342773-6.73584.956055-.521484,2.824707-1.564453t2.78125-1.564453q.173828-.086914.695313-.391113t.934326-.499756.760498-.239014q-.043457-.086914-.217285-.543212t-.325928-.825684-.325928-.499756Zm-5.084472.347656q-.651856,0-.999512-.347656-.086914.043457-.499756.239014t-.717041.456299q-.521484.391113-1.520996,1.238525t-1.520996,1.238525q-.956055.782227-2.824707,2.368409t-2.78125,2.368408q5.736328-3.215821,7.300781-4.171875q2.259766-1.216797,4.910645-2.868164.043457,0,.543213-.325928t.956054-.608398.543213-.239014q-.608398.304199-.738769.304199h-.260742q-.086915,0-.956055.173828-.391113.260742-.825684.260742-.086914,0-.304199-.043457t-.304199-.043457Zm-16.991699-.564941h-.086914.086914q-.260743.043457-.543213-.065186t-.369385-.108642q-.173828,0-.43457.260742-.173829.260742-.543213.803955t-.543213.803955q-.956055,1.390625-2.303223,3.302735.391113-.260743,6.953125-4.606446-.043457,0-.130371-.043457t-.130371-.043457-.173828.043457-.173828.043457q-.130371,0-.478028-.173828-.173828,0-.564941-.108643t-.564941-.108642Zm4.171875,25.46582q0,.086914.086914.086914t.260742-.152099.391113-.347657.304199-.28247q.869141-.912598,2.259766-1.955567.521484-.521484,1.564453-1.45581t1.60791-1.412354q-2.868164,2.085938-4.867187,3.476563-.825684.478027-1.434082.695312-.173828.086914-.173828.478028v.608398.260742Zm7.213867-2.650879l-.912598.434571.912598-.434571q-1.477539.782227-4.736817,2.824707-.173828.130371-.86914.456299t-1.064698.651856-.369384.760498v.260742q.695312-.478027,2.129394-1.455811t2.129395-1.45581q.043457-.043457.825683-.521485t1.368897-.912597.58667-.608399Zm-.260742,19.294922l-.564942.434571v0q.130371-.086915.564942-.434571.086914-.086914.086914-.260742v-.347656q-.3042.173828-.89087.651855t-.890869.651856q-1.781738,1.216797-3.563476,2.172851-.304199.173828-.890869.521485t-.890869.521484v.43457.825684q.912597-.695313,3.367919-2.411865t3.67212-2.759522Zm2.216308,9.430176h.086914q0,.173828-.43457.173828.173828,0,.608398-.173828h-.260742Zm-18.773437,4.997559q.825683-.564942,2.563965-1.673096t2.607421-1.716553q-.130371-.043457-.760498.347656t-1.303711.847412-.803955.499756q-1.086425,1.086426-1.955566,1.086426-.173828,0-.260742-.086914q0,.130371-.043457.347656t-.043457.347657Zm8.691406-6.518555l.217285-.173828q-.217285.086914-.217285.173828.782226-.521484,1.694824-1.042969l-.217285.086914q-.217285.130371-.456299.239014t-.478027.239014-.391113.260742-.1521.217285Zm.478027,1.520996l-.651855.43457l1.260254-.782226q-.173828.086914-.608399.347656-1.477539,1.042969-6.692383,4.38916q1.434082-.782226,6.692383-3.95459q3.824219-2.390136,4.69336-2.998535.043457-.043457.58667-.304199t.825683-.456299.695313-.478027.630127-.543213.217285-.521485q-1.216797.825684-7.648438,4.867188ZM37.25,97.566895q-.043457-.043457-.543213.28247t-1.281982.869141-1.499268,1.064697-1.412353,1.042969-.782227.564941q.173828-.130371.999512-.673584t1.281982-.803955t1.195069-.543213t1.347168-.28247q.738769,0,1.390625.521484-.564942-1.129883-.695313-2.04248Zm-.173828,2.868164l-.260742.173828q.086914,0,.260742-.173828-.825684.347656-3.911133,2.47705.347656-.173828.999512-.543213t1.042969-.586669.934326-.58667.934326-.760498Zm-7.213867,3.737304l-1.60791.956055q0,.043457.217285-.065186t.58667-.347656.803955-.543213q-2.955078,1.694825-4.606446,3.041992.521485,0,1.868653-1.086425.608398-.347657,1.586181-1.086426t1.151612-.869141Zm-1.781739,3.128907q1.825196-1.216797,4.649903-2.955079-1.91211,1.042969-5.432129,2.955079h.782226Zm4.432618-.173829l.391113-.304199-.391113.304199q.956054-.695312,2.933349-1.999023t2.976807-1.955566q-3.606934,1.738281-6.779297,4.041503.130371,0,.43457-.043457t.434571-.043457ZM30.861816,93.568848l1.129883-.782227q.086914,0-1.129883.782227q4.302247-2.824707,5.214844-3.389649.564942-.304199.73877-.630127t.260742-1.064697v-1.129883q-4.171875,3.693848-4.432617,3.911133-.173828.173828-.999512.803955t-1.390625,1.238525-.651855,1.086426q.782226-.478027,1.260253-.825683Zm6.127442-10.038575q-1.086426,1.042969-3.194092,3.063721t-3.150635,3.063721q3.780762-2.433594,5.910157-3.476563.173828-.086914.173828-.260742q0-.130371-.043457-.43457t-.043457-.43457v-.3042q0-.173828.173828-.608398t.173828-.608399Zm.347656-3.389648q0-.086914-.086914-.086914q0,.086914.086914.086914q0-.086914-.043457-.195557t-.043457-.152099q-.651855.564941-2.238037,1.890381t-2.737793,2.368408-2.064209,2.129394q4.432617-2.563964,4.649902-2.650879q1.564453-.999511,2.129395-1.260253.347656-.217286.347656-.782227q0-.130371-.043457-.456299t-.043457-.456299q0-.347656.086914-.43457ZM37.25,78.358887l-.43457.260742q.086914,0,.260742-.108643t.173828-.152099q-.869141.564941-2.607422,1.825195t-2.650879,1.825195q-.086914.043457-.456299.325928t-.760498.478027-.651855.195557q-.217285,0-.43457-.217285.173828,1.564453.173828,2.520508q1.303711-1.390625,3.21582-3.041992.086914-.086915.912598-.847413t1.303711-1.108154Q37.163086,78.967285,37.25,78.358887Zm-7.474609,1.347168q0,.173828.086914.260742q2.868164-2.216309,2.955078-2.303223-.217285.130371-1.02124.499756t-1.32544.73877-.695312.803955Zm.956054,1.303711l-.43457.304199q.173828-.130371.43457-.304199-1.129882.564941-1.129882.999511v.173828q.217285-.608398,1.129882-1.173339Zm-1.042968,8.213379l.086914.086914q.086914,0,.195556-.108643t.239014-.282471.173828-.217285q.260742-.260742.847412-.803955t.847412-.803955l2.520508-2.520508q-.608398.347656-1.781738,1.086426t-1.781738,1.086426q-.564942.217285-1.347168.695312-.086914.086914-.086914.434571q0,.304199.043457.803955t.043457.543213Zm5.345214-1.17334q-.999511.521484-.999511.651855.478027-.217285.999511-.651855-.738769.391113-2.020752,1.17334t-1.803466,1.042968q-.130371.086914-.412842.282471t-.43457.304199-.325928.282471-.260742.391113v.434571.825683q2.607422-2.477051,5.2583-4.736816ZM22.213867,102.477539h-.086914.086914-1.434082q-.260742,0-.260742.43457q0,.564942.260742,1.347168.43457-.260742,1.347168-.803955t1.347168-.803955q-.217285,0-.651855-.086914t-.608399-.086914Zm1.042969,4.910645q1.738281-1.868653,2.085937-2.129395.434571-.347656,1.32544-1.042969t1.325439-1.042968q-4.302246,2.563964-5.953613,3.389648-1.60791.695313-1.955566.73877.086914.086914.347656.086914.130371,0,.43457-.043457t.434571-.043457h.217285q1.303711,0,1.738281.086914Zm14.992676-.391114h.086914-.086914q.217285.043457.456299.130371t.325927.086914q.043457,0,.434571-.391113.260742-.260742.760498-.782226t.760498-.782227q1.303711-1.477539,2.216308-2.607422-.956054.564942-1.999023,1.238526t-2.303223,1.477539-1.999023,1.281982q.304199-.043457.738769.1521t.608399.195556Zm5.779785.130371v-.130371q0-.086914-.086914-.086914q0,.130371.086914.217285.173828-.130371.391113-.217285t.304199-.195556.086914-.325928v-.173828q0-.73877-.086914-1.086426-.43457.260742-1.325439.803955t-1.32544.803955q.130372.043457.282471.108643t.282471.108642.304199.043457q.347656-.173828.43457-.173828.347657,0,.651856.304199Zm.782226-5.084472q-.173828,0-.43457.325927t-.564941.803956-.347657.564941q-.43457.521484-1.281982,1.455811t-.934326,1.02124q.999512-.564942,2.607422-1.520996.695312-.347657,1.042969-.608399.43457-.217285.630126.478028t.195557,1.477539v.347656l.086914.521484q.086914,0,.1521-.195556t.108642-.412842.086914-.260742q0-.043457-.043457-.173828t-.043457-.173829q0-.173828.086914-.58667t.086914-.586669q-.173828-.695313-.173828-1.347168v-.521485q-.043457-.260742-.217285-.347656t-.499756-.130371-.543213-.130371Zm-4.08496-.651856h-.173829q.086914.173828.086914.478028t-.152099.608398-.456299.58667-.543213.456299-.673584.456299-.564941.369384q-.478028.347657-2.020752,1.347168t-2.368408,1.607911q1.390625-.521485,2.889892-1.434082t3.302735-2.151124t2.802978-1.846923h-.260742q-.347656,0-1.02124-.217286t-.847412-.260742Zm-3.998047-8.517578v-.260742q-1.086426.825684-3.324463,2.368408t-3.36792,2.411865q2.477051-1.520996,2.78125-1.781738.43457-.304199,1.325439-.977783t1.32544-.977783q1.260254-.651856,1.260254-.782227Zm.347656-17.382812q.043457.086914-.717041.673584t-1.586182,1.129882-1.086426.717041q1.868653-1.129882,2.78125-1.520996.434571-.130371.521485-.195556t.086914-.239014v-.564941Zm-3.824219-2.129395l.608399-.347656q-.608399.347656-.695313.347656h.086914q.43457-.260742,1.542725-.934326t1.76001-1.02124q.260742-.173828.260742-.695313v-.738769q-.782227.651855-2.34668,2.04248t-2.390137,2.085938q.173828-.130371.58667-.369385t.58667-.369385Zm16.557129-11.125q-5.258301,3.041992-7.126953,4.128418-.217285.130371-.673584.391113t-.673584.391114q-.173828.086914-.173828.260742q0,.043457.021728.086914t.065186.1521.086914.195556q.173828.347656.456299,1.086426t.456299,1.042969q.825683-.869141,3.476562-3.541748t4.084961-4.193604Zm-6.692383,10.25586q.173828.304199.434571,1.260253.608398-.521484,1.60791-1.412353t1.846924-1.629639t1.542724-1.434082q-3.302734,1.60791-4.345703,2.042481-1.17334.391113-1.17334.825683q0,.173828.086914.347657Zm1.260254,3.65039l.347656.695313q4.910645-4.519532,10.25586-9.343262-1.17334.564941-2.411865,1.434082t-2.672608,2.020752-2.216308,1.716553l-.564942.478027q-.564941.478027-.803955.630127t-.73877.478027-.912597.456299-.803955.086914q.130371.217285.260742.673584t.260742.673584Zm1.781738,3.737305q0,.043457,2.93335-2.433594t3.80249-3.259277q.434571-.391114,1.390625-1.260254t1.390625-1.260254q.130371-.130371.325928-.304199t.260742-.260742.130371-.195557.065186-.282471q0-.043457-.043457-.152099t-.043457-.195557q-1.086426.43457-2.151123.977783t-2.368408,1.434082-1.890381,1.303711-2.19458,1.629639-1.868653,1.390625q-.738769.478027-.738769.825683q0,.173828.260742.695313.43457.564941.738769,1.347168Zm7.387696-2.78125q-2.650879,1.477539-5.345215,3.128906-.043457,0-.456299.173828t-.651855.347656-.239014.347657v.130371q.43457.86914.521484,1.303711q1.477539-1.694824,6.170899-5.432129ZM50.243652,89.049316v-.086914.086914q.086914.217286.347657,1.434082.738769-.86914,3.65039-2.868164-.043457.043457-.651855.325928t-1.390625.564942-1.17334.28247q-.521484,0-.521484-.391113q0-.173828.086914-.260742.173828-.347656.499755-.695313t.869141-.760498.673584-.499756q.521484-.391113,1.455811-1.195068t1.412353-1.195068l-.521484.347656q-.478028.304199-1.151612.695312t-1.45581.803955-1.499268.695313-1.151611.282471q-.651855,0-.651855-.434571v-.173828q.043457-.391113.28247-.760498t.695313-.717041.803955-.564941.86914-.499756.651856-.369385q.956055-.651855,3.433105-2.172851t3.693848-2.477051q-.43457.260742-6.866211,4.258789-.086914.043457-1.238525.673584t-2.020752,1.216797-.825684.803955q.260742.347656.564942,1.086426t.43457.956054q.043457.043457.347656.673584t.347656.934326Zm1.694825,4.519532q.260742.304199,4.454345-3.259278t4.888916-4.562988q-1.042968.608398-3.194092,1.933838t-3.889404,2.303223-3.346191,1.716552q.130371.217285.391113.58667t.43457.695313.260743.58667Zm20.207519-9.08252l-.651855.391113q.564941-.304199.651855-.391113Q59.021973,92.352051,53.372559,96.61084q1.216796-.869141,3.585205-2.259766t3.150634-1.912109q3.650391-2.477051,6.779297-4.215332q2.607422-1.260254,3.215821-1.390625.43457-.086914.717041-.239014t.499756-.43457.28247-.412842.260742-.608398.282471-.651856ZM68.147949,85.92041q.564942-.347656,1.651367-1.02124t1.607911-1.02124q-.173829,0-.456299.195556t-.630127.456299-.478028.347656q-.260742.173829-.847412.521485t-.847412.521484Zm.086914,8.387207v-.086914.086914-.564941q-1.347168,1.17334-2.759521,2.238037t-3.824219,2.737793-2.93335,2.064209q1.042969-.564942,3.08545-1.76001t3.041992-1.803467q.217285-.130371.717041-.391113t.717041-.391113q.304199-.173828.43457-.304199t.217285-.260743.217286-.521484q.130371-.173828.586669-.499756t.499756-.543213Zm1.042969-4.128418q0,.043457-.825684.543213t-1.868652,1.086426-1.129883.630127q-4.562988,2.78125-5.171386,3.172363-2.824707,1.738281-4.519532,3.041992-.086914.086914-.347656.260743l-.391113.260742q0,0-.304199.239013t-.239014.3042-.065186.28247q0,.260742.086914.347657l8.213379-4.823731q1.042969-.564941,4.432618-2.650879.130371-.086914.412841-.217285t.499756-.239014.43457-.28247.260743-.347657v-.086914q0-.478027.521484-1.520996ZM53.980957,99.000977q-.130371-.173829,1.912109-1.586182t2.520508-1.629639q-.217285.086914-1.890381,1.086426t-2.542236,1.086426q-.43457,0-.43457.260742q0,.130371.43457.782227Zm7.126953-8.734864l-1.434082.912598q.347656-.217285,1.434082-.912598-2.433594,1.60791-4.345703,2.78125-.130371.086914-.695312.391114t-1.108155.608398-1.108154.651855-.890869.695313-.239014.608398q2.303223-1.781738,8.387207-5.736328Zm.173828,7.126953q-3.563476,2.042481-5.779785,3.302735-.521484.260742-.521484.521484q0,.086914.065185.217285l.173828.347657q0,0,.195557.43457q1.825195-1.477539,5.366943-3.976318t4.410889-3.150635q-.738769.391113-2.107666,1.216797t-1.803467,1.086425Zm2.563965,4.084961l-1.781738,1.347168q.43457-.347656,1.781738-1.347168.130371-.130371.58667-.43457t.673584-.521484q-3.911133,2.433593-7.040039,4.084961-.391113.260742-.782227.260742-.521484,0-.521484-.434571q0-.217285.260742-.608398-.651855.391113-.651855.608398q0,.086915.065185.217286t.1521.347656l.173828.43457q0,0,.260742.695313t.260742.695312q.73877-.956054,1.76001-1.825195t2.694336-2.020752t2.107666-1.499268Zm.999512.651856v-.260742q-4.476074,3.21582-6.214356,4.780273.086914,0,1.129883-.695312.391113-.260743,1.195069-.760498t1.195068-.760499q.347656-.217285,1.042969-.673584t1.042968-.673583q.173829-.086915.282471-.260743t.195557-.391113.130371-.304199Zm-6.214356,1.216797L59.5,102.825195q-.347656,0-.869141.521485.695313-.391114,1.977295-1.151612t1.933838-1.151611q1.434082-.782227,2.390137-1.434082l.304199-.1521q0,0,.282471-.152099t.173828-.1521.130371-.239013.065186-.347657q-5.301758,3.085449-7.257325,4.780274ZM74.362305,78.706543q-.043457,0-.260742.1521t-.478028.304199-.347656.195556q-.782227.564942-1.781738,1.129883-1.477539,1.042969-2.998536,1.955567-1.564453.956054-2.129394,1.260254-.521484.260742-.73877.260742-.260742,0-.260742-.260742v-.260743q-.173828.564942-.934326,1.607911t-1.281982,1.042968q-.478028,0-.695313-.695312-.217285.608398-.760498,1.303711t-.977783,1.086426-1.32544,1.129882-1.064697.912598q-2.694336,2.216309-6.040527,4.562988q0,.086914.086914.086914q8.126465-6.257812,14.253906-9.604004.173828-.130371,1.17334-.825683t1.520996-.999512t1.368897-.651855t1.542724-.391114q.130371-.043457.217285-.021728t.173828.065185.130372.043457q.130371,0,.260742-.347656q0-.782226.564941-1.347168.086914-.260742.391113-.847412t.391114-.847412Zm8.734863-.521484v.173828q.347656-.217285,1.02124-.673584t1.02124-.673584q-1.390625.912597-1.868652.912597-.043457,0-.086914-.043457t-.086914-.043457v.347657Zm.173828,3.737304q-.043457-.086914.825684-.782226t1.999023-1.542725t1.17334-.890869q.695312-.564941,1.977295-1.629639t1.933838-1.586181q-3.911133,2.694336-5.953613,3.95459-1.651368.825683-1.955567.956054v1.086426.43457Zm-.173828,2.650879q0-.043457,3.650391-2.477051-.173829.086914-1.216797.564942t-1.694824.956055-.73877.956054Zm5.692871,11.950684l.782227-.434571-1.520996.869141q.217285-.173828.738769-.43457.912598-.478028,2.498779-1.434082t2.107666-1.260254q.086914-.043457.478028-.217285t.717041-.347657.695312-.391113.58667-.412842.217285-.325927q-2.085937.912597-6.344726,3.389648-3.433106,2.129395-3.824219,2.34668-.912598.608398-2.303223,1.477539-1.390625.825683-1.520996.999512.478028-.3042,6.692383-3.824219Zm7.213867-2.607422l-.825683.391113q.304199-.130371.825683-.391113-1.912109.651855-5.866699,2.955078q2.737793-1.216797,5.866699-2.955078ZM83.531738,90.483398l.086914-.217285-.086914.217285q.651856-.825683,1.390625-1.651367t1.738282-1.716552t1.629638-1.434083t1.890381-1.586181t1.694824-1.390625q-.738769.521484-3.06372,2.172851t-3.585205,2.477051q-.173829.130371-.564942.347656t-.564941.325928-.347657.391113-.217285.630127v.956055.478027ZM81.31543,102.303711l-.173828.173828.43457-.260742q-.086914,0-.260742.086914-.3042.217285-.977784.673584t-.977783.673584q.695313-.391113,2.107666-1.260254t2.151123-1.260254q-1.347168.73877-2.303222,1.17334Zm2.303222-7.474609l2.216309-1.694825-2.216309,1.694825q5.605957-4.302247,7.822266-6.040528.43457-.347656,3.041992-2.607422.043457-.043457.282471-.195556t.43457-.3042.412842-.325927.325928-.369385.065185-.325928q-1.520996.912598-4.932373,3.302735t-5.323486,3.476562q-1.60791.912598-2.129395.912598-.086914,0-.086914.86914q0,1.434082.086914,1.607911Zm7.040039-4.258789l.869141-.825684q-.173828.217285-.869141.825684-.43457.217285-.651855.43457q3.041992-1.999024,4.736816-2.520508q1.086426-.173828,1.17334-.782227-.086914-.173828-.086914-.43457q0-.130371.043457-.456299t.043457-.456299v-.260742q-2.650879,2.34668-5.258301,4.476075Zm5.345215-13.90625q-1.694824,1.173339-5.084472,3.541748t-5.084473,3.585205q5.084473-3.08545,6.518555-3.998047q2.433593-2.042481,3.085449-1.868653.478027.173829.478027.434571q0,.608398-.912597,1.520996.086914-.086914.347656-.086914t.478027.152099.173828.456299q-.043457.173828-.239013.347656t-.478028.369385-.369385.282471q-1.260253.869141-2.563964,2.04248-.434571.391114-1.933838,1.651368t-2.281494,1.999023q-.217286.217285-.869141.760498t-.999512.847412-.847412.803955-.847412.977783-.608398.956055q.651855-.217285,1.45581-.673584t1.260254-.782226t1.434082-1.042969t1.195068-.890869q2.955079-1.999024,5.8667-3.911133.304199-.173828.478027-.282471t.260742-.260742.130371-.260742.108643-.412842.108642-.478027q0-1.260254.086915-1.694825-.086915-.260742-.086915-1.042968q0-1.086426.086915-1.434082-.173829-.478028-.347657-1.60791ZM83.184082,86.833008q6.127441-3.693848,6.73584-4.128418q2.303223-1.477539,3.95459-2.911621-3.606934,2.346679-7.518067,4.606445-.956054.651856-2.390136,1.434082-.086914.043457-.239014.108643t-.173828.086914-.130371.086914-.108643.086914-.043457.086914-.065185.1521-.021729.173828v.217285Zm-7.648437,15.383789l.086914.086914q0-.086914-.086914-.086914-.086915.086914-.478028.086914-.130371,0-.478027-.043457t-.478027-.043457q-.434571,0-.434571.260742.173828,1.390625.173828,2.216309q1.477539-.912598,3.737305-2.477051-.086914-.086914-.260742-.086914t-.608399.130371-.651855.130371q-.173828,0-.521484-.173828Zm1.60791,4.910644h.086914-.086914q.260742-.130371.43457-.130371.217285,0,.608398.1521t.608399.1521q.130371,0,.478027-.173829.478028-.43457,1.216797-.912597.782227-.608399,2.390137-1.868653t2.433594-1.868652q1.347168-.956055,3.954589-2.911621t3.95459-2.955078q-9.51709,5.432129-18.338867,10.603515.912598-.304199,1.086426-.391113.738769,0,1.17334.304199Zm5.953613,0v-.130371q0-.086914-.086914-.086914q0,.130371.086914.217285.43457-.304199.956055-.304199h.912597q.782227,0,1.129883-.260742.651856-.521484,1.999024-1.586182t2.04248-1.629638q.478027-.434571,1.825195-1.542725t2.259766-1.933838t1.694824-1.651367q-1.129883.391113-4.910644,2.563965-1.564453.912598-3.259278,1.977295t-3.80249,2.411865-3.194092,2.04248q.260742,0,.847412-.152099t.847413-.1521q.43457,0,.651855.217285Zm7.735352-.391113h-.173829.173829q.217285.043457.391113.086914l.260742.065186q0,0,.130371.021728.217285,0,.564942-.347656.304199-.304199.890869-.934326t.890869-.934326q.564941-.651856,2.824707-2.911621-5.692871,2.911621-8.908692,5.214843.086914,0,.260743.1521t.217285.1521l.086914-.086915q.43457-.217285.521484-.217285.217285,0,.434571.217285.130371-.130371.695312-.304199t.73877-.173828Zm7.561523-5.519043q-.564941.608399-1.738281,1.846924t-1.738282,1.890381q2.303223-1.781738,4.823731-3.259277-.956055-.478028-1.347168-.478028Zm-4.910645,6.083985q.564942,0,.825684.173828.173828-.260743.869141-.260743q0-.130371.43457-.564941.304199-.260742.934326-.760498t.934326-.760498q1.260254-1.086426,3.780762-3.085449-.43457-.130371-1.195068.28247t-1.651368,1.108155-1.108154.825683q-.738769.521485-2.129394,1.520996t-2.129395,1.520997h.173828.260742Zm3.824219-.086915l.391113-.304199-.391113.304199q1.086426-.651855,2.520508-1.60791-1.60791.825684-2.868164,1.60791h.347656Zm3.563477-1.347167l-.173828.086914.347656-.260743q0,.086914-.173828.173829-.304199.217285-.934326.630126t-.934327.630127q.3042.043457.543213.043457t.651856-.28247.695312-.478028.695313-.58667.651855-.630126.521485-.543213.369384-.391114q-.347656.260743-1.129882.803955t-1.129883.803956Zm4.82373-2.129395v-.391113q-3.606933,2.955078-4.258789,3.563476.43457.130371.977783-.130371t1.216797-.782226.890869-.651856q.086914-.043457.369385-.217285t.325928-.195557.195557-.152099.173828-.260742.065185-.325928.043457-.456299Zm-1.17334,3.259277l.086914-.173828q-.086914.086914-.086914.173828.434571-.564941.999512-.695312.086914-.086914.086914-.347656v-.260743q-.608398.347657-1.781738,1.129883.521484.173828.695312.173828Zm-2.390136-4.606445q.086914-.086914.43457-.260742-.086914.043457-.217285.130371t-.217285.130371Zm-10.777344.956055q1.520996-.999512,1.520996-1.129883-.651855.43457-1.520996,1.129883q1.17334-.825684,4.910644-2.998535.695313-.434571.695313-.608399q0-.304199-.086914-.478027-.043457-.086914-.086914-.325928t-.086914-.369385q-.564942.608399-1.303711,1.303711t-1.281983,1.151612-1.434082,1.216796-1.325439,1.108155Zm4.910644-7.648438v-.347656q-.825683.608398-3.824218,2.889893t-4.649903,3.454834q5.779786-3.389649,7.040039-3.95459q1.260254-.521485,1.347168-.521485.260743,0,.260743-.43457q0-.130371-.086914-.543213t-.086915-.543213Zm-1.520996-5.127929q.043457-.043458.282471-.1521t.43457-.217285.3042-.282471.065185-.347656q-1.694824.86914-8.039551,4.736816-.173828.130371-1.303711.695313t-2.020752,1.108154-.847412.847412q1.868653-1.086426,5.8667-3.650391q3.693847-2.303222,5.2583-2.737792Zm1.260254-17.730469q-1.086426.825683-1.260254.999511-.651855.478028-1.781738,1.390625t-1.347168,1.086426q-1.781738,1.390625-4.606445,3.737305q2.607422-1.651367,7.126953-4.171875.130371-.086914.564941-.304199t.695313-.434571.347656-.43457q.130371-.347656.1521-.999512t.108642-.86914Zm-.086914-1.60791q0-.086914-1.564453.86914t-3.302734,2.064209-2.172852,1.455811q-.695312.43457-2.020752,1.325439t-1.977295,1.32544q-1.60791.825683-1.60791,1.260254q1.520996-.782227,6.953125-4.389161.564942-.347656,1.651367-1.108154t1.60791-1.108154q.086915-.086914.73877-.456299t1.17334-.717041.521484-.521484Zm2.042481-2.824707q.043457-.043457.130371-.1521t.130371-.1521q-.086914.043457-.173828.173828Z" transform="matrix(1.208221 0 0 1.160941-12.448922-34.153593)" paint-order="fill markers stroke" fill="#3494d9"/><path d="M186.049736,82.496094v.386719q0,1.289062-.257812,1.933593.085937.171875.085937.945313v.34375q0,.042969-.322265.408203t-.322266.408203q0,.085938-.085937.279297t-.085938.236328q-.085937.300781-.300781.923828t-.300781.923828q-.085938.257813-.214844.945313t-.300781,1.246094-.429688.902343q-.214844.945313-1.074219,2.191407-.085937.128906-.257812.623046t-.257813.623047q-.214843.214844-.386718.666016t-.34375.623047q-.042969.386719-.494141.923828t-.794922.666016q-.171875.300781-.386719.429687q0,.816406-.085937,1.160156-.34375.816407-1.375,1.503907-.042969.042968-1.761719,1.503906-.34375.34375-1.203125.945312t-1.203125.988282q-1.160156,1.332031-2.105469,1.847656-.128906.042969-1.417968.773437t-2.019532.730469q-.429687,0-1.03125-.300781-.128906-.042969-.558593-.429688t-.773438-.34375q-.644531.300782-1.074219.429688-.128906,0-.408203.042969t-.451172.042968q-.429687,0-.816406-.257812-.128906,0-.472656.15039t-.472656.19336h-.171875q-.128907,0-.365235-.085938t-.365234-.085937q-.171875,0-.257813.085937-1.203125.730469-1.933593.730469-.34375,0-.429688-.085937-.085937.085937-.601562.085937-.816407,0-.988282-.085937-1.03125.171875-1.675781.171875-.257812.171875-.773437.171875-.558594,0-.730469-.085938-.128906-.042969-1.22461-.279297t-1.568359-.537109q-.085937,0-.580078.15039t-.751953.150391q-.472656,0-.6875-.214844-.171875-.128906-.279297-.279297t-.171875-.236328-.214844-.128906-.408203-.042969q-2.277344-.34375-2.792969-.6875-.429687.085938-.902343.429688-.085938.085937-.34375.085937-.34375,0-.34375-.429687q0-.34375.257812-.472656-.988281-.859375-3.179687-2.083985t-2.964844-1.783203q-.601563-.257812-1.503906-.988281t-1.332032-1.289063q-.34375-.171875-.945312-.773437l-.558594-.085938q-.515625-.085937-.515625-.300781q0-.171875.171875-.34375-1.460937-.945312-2.363281-2.535156-.773438-1.117188-1.246094-2.019531-.085937-.171875-.257812-.171875t-.494141.171875-.494141.171875-.257812-.171875-.085938-.429688q0-.214844.558594-1.332031-.085937-.085938-.300781-.515625-.988281-1.375-1.289063-2.578125l-.300781-.429688h-.171875-.34375q-.34375-.128906-.34375-.34375q0-.171875.214844-.451172t.386719-.365234q-.601563-1.417969-.601563-2.363281-.386719-.816406-.601562-2.621094-.042969-.214844-.408204-.386719t-.408203-.429687q0-.042969-.042968-.171875t-.042969-.171875q0-.34375.300781-.816406t.34375-.6875q-.214844-.730469-.214844-1.847657q0-.472656.042969-1.375t.042969-1.417968q0-.902344-.085938-1.332032-.171875.085938-.429687.085938-.429688,0-.429688-.429688q0-.773437.945313-1.332031.214844-.34375.214844-.902344q0-.601562.085937-.859375.171875-.515625.279297-1.675781t.322266-1.761719q.859375-2.835937,1.503906-3.695312v-.085938q0-.515625.300781-1.396484t.558594-1.224609v-.171875q0-.558594.386719-1.22461t.859375-.923828q.472656-1.375,1.332031-1.675781.085937-.085938.085937-.257813v-.257812q0-.257813.171875-.34375l.515625-.515625q.214844-.515625,1.03125-1.203125t.902344-.816406q.171875-.773438,1.761719-1.675782.300781-.6875.988281-.988281v-.257812q0-.472657.34375-1.160157.257813-.386718.859375-.859375t.816406-.730468q.429688-.6875,1.289063-1.375q1.417969-1.246094,2.664062-1.246094.429688,0,.6875.085937.34375.128907.816407.429688.171875-.171875.6875-.34375h.257812q.644531,0,1.074219.429687.042969-.386718.279297-.515625t.623047-.128906.515625-.042969q.6875-.34375.945312-.34375.042969,0,.128906.042969t.128907.042969q0-.300781.236328-.515625t.49414-.214844q.214844,0,.429688.214844.214844.128906.34375.34375.042969.085937.085937.085937t.085938-.021484.15039-.064453.19336-.085938q.042969,0,.859375-.666015t1.289062-.666016q.429688,0,.859375.429688.171875-.34375.429688-.34375h.171875q.300781,0,.644531.34375.085938,0,.214844-.042969t.214844-.042969h.171875q.085937,0,.386718-.042969t.472657-.042968h.214843q1.71875.34375,2.449219.34375t1.246094.257812q.085937-.085937.34375-.085937.214844,0,.708984.15039t.708985.150391h.171875q.085937-.085938.515625-.085938.601562,0,1.460937.214844t1.160156.472656q.730469-.128906,2.664063.859375.386719.042969.794922.214844t.945312.494141.794922.451172q1.117188.558593,1.332031.773437.214844.042969.6875-.128906t.730469-.128906q.34375.085937.34375.472656q0,.128906-.042969.365234t-.042968.322266q0,.171875.085937.171875.515625.214844,1.160156.6875-.042968-.171875-.257812-.451172t-.214844-.408203q0-.214844.34375-.429688.859375-.429687.988281-.644531q0-1.546875,1.246094-2.621094.085938-.085937.429688-.085937.644531,0,1.160156.171875q1.117187,0,1.632812.085937.128907,0,.644532-.085937t.773437-.085938q.34375,0,.429688.085938h.300781q.257812,0,.601562-.171875.085938-.042969.300782-.128906t.300781-.128907q.042969,0,.515625.257813t.558594.34375q.515625.214844.515625,1.160156v.34375q.085937.257813.085937.945313q0,.34375-.042969,1.03125t-.042968.902343q.171875,1.976563.171875,3.007813.257812,1.804687.257812,2.363281t-.085937.730469q.171875.6875.171875,1.847656q0,.773438-.085938.945313v.644531q0,1.460937-.257812,2.105469.171875.6875.171875,1.589843q0,1.160157-.171875,1.847657.171875,1.546875.171875,2.019531q0,.773437-.171875,1.203125q0,.042969-.042969.472656t-.042969.601563q0,.257812.085938.34375.085937.171875.085937.816406q0,.429687-.085937.601562-.386719.773438-1.589844.773438h-.257813q-.042968,0-.257812-.042969t-.257813-.042969q-.085937-.085937-.34375-.085937h-.472656-.257812q-.171875-.085938-.515625-.085938-.257813,0-.837891.085938t-.837891.085937q-.085937,0-.257812-.042968t-.257813-.042969q-.257812.085937-1.246093.085937-1.761719,0-2.277344-.515625-.386719,0-.558594-.279297t-.257812-.773437-.171875-.623047q-.34375.171875-.429688.171875-.257812,0-.257812-.34375q0-.257812.171875-.773437t.171875-.558594q-.085938-.128906-.171875-.53711t-.171875-.580078q-.042969-.085937-.257813-.730468-.601562,0-.6875-.257813l-.128906-.171875q0-.171875.300781-.429687t.34375-.34375q-.085937-.085938-.085937-.558594v-.257813q-.042969-.085937-.064454-.580078t-.107421-.623047q0-.085937-.171875-.085937-.085938,0-.365235.042969t-.365234.042968q-.34375,0-.34375-.386718v-.171875q.042969-.171875.279297-.279297t.236328-.236328q0-.085938-.085938-.171875l-.257812-.515625q-.988281-.988282-1.246094-1.503907-.515625-.386718-1.03125-1.074218-.085937-.042969-.386719-.085938t-.537109-.150391-.236328-.279296q0-.257813.085937-.34375-.902343-.902344-2.792968-1.503907l-.429688-.171875-.322266-.128906q0,0-.236328-.042969-.085937,0-.773437.171875-.042969,0-.150391.042969t-.193359.042969q-.816406,0-.816406-.429688q0-.128906.171875-.300781-.859375,0-1.117188-.171875-.171875,0-.451172.150391t-.451172.15039l-.859375-.214843q-.300781,0-.472656.085937-.816406,0-1.203125-.257812-.085937,0-.322266.042968t-.322265.042969q-.730469,0-1.117188-.257812-.128906.042968-.300781.128906-.171875.042969-.257812.214844q0,.042968-.021485.085937l-.064453.128906q-.34375.515625-.601562.773438-.644532.644531-2.191407,1.503906-.042968,0-.83789.666016t-1.439453.623047q-.558594-.042969-1.117188.34375t-.902344.472656l-.386718.128906q0,0-.34375.128906t-.236329.19336-.279296.408203q-.085938.214844-1.074219,1.417969-.085938.171875-.300781.708984t-.386719.794922q.042969.257812-.279297.945312t-.537109.902344q.042968.300781-.128907.6875t-.451172.859375-.365234.644531q0,.730469-.515625,1.503907-.558594,1.503906-.558594,2.019531q0,.472656.085938.730469v.171875q0,.601562-.34375,1.117187v.730469q.171875.34375.171875.945312q0,.128907-.042969.322266t-.042969.279297q.171875.257812.171875,1.246094q0,.902343-.085937,1.246093v.773438q.257812,0,.386719.257812q0,.257813-.300782.558594-.085937.085938-.085937.171875q0,.042969.042969.171875t.042968.171875q.386719,1.546875.386719,2.363281.34375,1.203125.34375,2.019532v.300781q.386719.730469.6875,1.847656.214844.472656.644531,1.761719t.773438,1.933594q.257812.386718.83789,1.18164t.837891,1.181641q.429688.902344.773438,1.117187.128906.042969.537109-.257812t.623047-.257813q.34375.128907.34375.34375q0,.300782-.257813.644532t-.429687.429687q.386719.128906,1.203125.666016t1.332031.666015q.214844.085938.816406.386719t.945313.386719q.128906,0,.300781-.085938t.300781-.085937q.171875.042969.279297.279297t.279297.322265q.902344.34375,1.375.644532l.730469.171875q.171875,0,.429687-.128907t.429688-.128906h.171875q.300781,0,.816406.171875.34375-.171875.601563-.171875.085937,0,.429687.171875.214844,0,.730469-.042969t.773437-.042968q.558594,0,.730469.085937v-.257812q0-.386719.214844-.644532t.472656-.257812.6875.429687q3.480469-4.039062,6.1875-4.8125.257813-.085937.859375-.085937.472656,0,.730469.085937.171875-.171875.34375-.515625t.257812-.472656.451172-.472656.601563-.666016.279297-.537109q-.558594-.128906-.558594-.34375q0-.171875.193359-.429688t.472656-.49414.322266-.322266q0-.515625.429688-.945312v-.257813q0-.773437.257812-1.160156.042969-.171875.322266-.794922t.537109-1.160156.214844-.580078q-.085938-.085938-.085938-.257813q0-.515625.623047-1.009766t1.138672-.49414q.257813,0,.34375.085937.386719.257813.6875.257813t.923828-.171875.923828-.171875q.558594,0,.730469.171875.300781,0,.923828-.171875t.923828-.171875h.34375h1.417969q2.277344,0,2.277344.945312q0,.257813-.085938.429688Zm-6.960937,13.664062l-.171875.085938q.085937,0,.171875-.085938v-.257812q-.429688.34375-1.310547,1.052734t-1.310547,1.052735q.773438,0,1.117188.085937.085937-.300781.558593-.601562.386719-.988282.945313-1.332032Zm3.179687-6.789062h-.085937.085937q-1.332031,1.074219-4.060547,3.050781t-3.072265,2.234375q4.339844-2.664062,5.457031-3.09375.085938-.042969.300781-.107422t.257813-.085937.193359-.085938.19336-.107422.128906-.15039.15039-.214844.107422-.279297q0-.171875.171875-.580078t.171875-.580078Zm-5.199218,5.199219q-.085938.085937-.171875.085937l.171875-.085937q-.085938.042968-1.160157.6875.042969,0,4.597657-2.363282-1.933594.730469-3.4375,1.675782Zm5.628906-7.21875v.085937-.085937q-.042969.128906-.580078.386718t-1.160157.580078-.794921.451172q-.472657.214844-1.074219.6875-1.761719.988282-4.382813,2.835938-.257812.171875-.794922.472656t-.794921.472656q-.214844.128907-.644532.580078t-.773437.580079q-.859375.300781-.945313.34375-.085937.128906-.171875.365234t-.15039.386719-.214844.279297-.365234.128906q-.472657-.042969-.623047.064453t-.214844.429687-.236328.53711q-.171875.257812-.623047.558594t-.580078.429687q2.664062-1.632812,11.171875-7.304687.472656-.34375,1.439453-1.009766t1.439453-1.009766q.042969,0,.300781-.128906t.429688-.128906h.085937q.128907,0,.171875-.214844t.042969-.472656.042969-.300781Zm-29.820313,19.078125l.34375-.085938-.34375.085938q3.136719-1.460938,10.828125-6.058594-.300781-.085938-.751953-.386719t-.666015-.300781q-.34375,0-.601563.257812-1.246094.988282-3.007812,2.105469-1.160157.773438-3.416016,2.169922t-3.115234,1.955078q.515625.257813.730468.257813Zm7.21875-6.402344q-1.933593,1.074219-5.542968,3.179687t-4.339844,2.535157h.300781q.515625,0,.601563.085937.429687-.171875,1.117187-.6875.171875-.128906,1.267578-.816406t1.740235-1.03125q.472656-.300781,1.482421-.966797t1.525391-.966797q.214844-.128906.601563-.451172t.708984-.537109.537109-.34375Zm19.078125-13.835938q-.6875.472657-.6875.558594l.6875-.558594q-1.503906,1.03125-3.09375,1.933594-.300781.171875-.472656.34375t-.236328.300781-.171875.386719-.236328.472656q.558594-.429687,2.298828-1.761718t2.642578-2.105469q-.558594.386719-.730469.429687Zm4.769532-2.792968l-.34375.429687q.34375-.34375.34375-.429687-1.203125,1.332031-2.814454,2.642578t-3.630859,2.771484-3.050781,2.320313q3.308594-1.847657,7.476562-4.554688.085938-.042969.408203-.257812t.451172-.214844q.171875,0,.279297-.021485t.171875-.042968.107422-.085938.064453-.128906.042969-.193359.064453-.214844q.300781-.773438.429688-2.019531Zm-3.695313,0l-.171875.085937q.171875,0,.171875-.085937-.171875.085937-.666016.214843t-.751953.386719q-.171875.171875-.580078.537109t-.580078.53711q-1.03125.859375-1.589844,1.417969-.171875.171875-.236328.257812t-.085937.150391-.042969.214843-.064453.322266q3.4375-2.105469,5.972656-3.867187-1.03125,0-1.375-.171875Zm-3.953125,1.589843q0,.085938.085938.085938t.257812-.19336.257813-.322265q-.257813-.257813-.257813-.472656-.042969.128906-.171875.451171t-.171875.451172Zm-18.691406,15.039063q-.472656-.042969-1.117188.386719t-1.503906,1.224609-.988281.923828q.214844-.128906,4.597656-2.621094-.171875,0-.494141.042969t-.49414.042969Zm-2.535156-.429688h.085937-.085937q-.128907,0-.322266-.128906t-.279297-.128906l-.171875.171875q-.128906.171875-.988281,1.03125-.34375.300781-.773438.644531t-.945312.730469-.816406.644531q1.289062-.816406,4.8125-2.707031-.257813-.257813-.515625-.257813Zm-5.628907-2.578125h-.085937.085937q-.34375-.042968-.623047-.236328t-.365234-.193359q-.214844,0-.6875.34375-.257812.214844-2.707031,2.40625-.601563.429687-1.933594,1.654297t-1.332031,1.568359v.085938q1.460937-.816407,4.361328-2.470704t4.361328-2.513671q-.558594-.128907-1.074219-.644532Zm-5.285156,7.132813q.128906-.085938,1.804688-1.246094t2.578125-1.804687q-1.933594,1.375-4.554688,2.878906q0,.171875.171875.171875Zm3.4375-8.25q-.214844-.128906-.644531.021484t-.988281.515625-1.052735.708985-1.03125.730468-.666015.472657q-2.363282,1.546875-3.265625,2.363281.945312-.257813,4.361328-2.40625t3.287109-2.40625Zm-7.820312,2.621094q1.160156-.6875,3.394531-1.998047t3.351562-1.955078q-.257812-.257813-.580078-.794922t-.451172-.708985q-.085937.085938-5.714843,5.457032Zm5.070312-6.144532v.085938l.085938-.085938h-.085938Zm-1.933594-4.125q-.171875-.257812-.365234-.902343t-.236328-.6875q-1.203125,1.289062-3.673828,3.867187t-3.716797,3.867188q1.460937-.6875,5.800781-3.609375.171875-.171875.988281-.666016t1.203125-.494141q.171875,0,.171875.257813v.300781q-.128906.386719-.558593.837891t-.837891.751953-1.03125.708984-.794922.494141q-.472656.34375-1.375,1.009765t-1.439453,1.095704-1.267578,1.03125-1.289063,1.160156q.042969,0,.128907.064453t.128906.064453q.300781,0,.6875-.193359t.859375-.53711.644531-.429687q.214844-.128906,3.179688-2.019531.472656-.300782,1.332031-.859375t1.611328-1.009766t1.439453-.794922q-1.460937-1.890625-1.589844-3.308594Zm-12.289062,3.953125q1.246094-.6875,3.78125-2.169922t3.78125-2.169921q.601562-.34375,1.783203-1.052735t1.740234-1.052734q.171875-.171875.171875-.429688q0-.214843-.429687-1.933593-5.285156,3.695312-6.1875,4.382812-1.460938,1.03125-3.609375,2.835938-.128906.085937-.322266.236328t-.300781.257812l-.236328.236328q0,0-.19336.236328t-.064453.236329q0,.300781.085938.386718Zm10.441406-11.257812q0,.085937-.751953.6875t-1.71875,1.310547-1.052734.794922q-.558594.515625-1.675782,1.439453t-1.71875,1.396484q.859375-.429687,4.382813-2.578125.386719-.214844,1.18164-.644531t1.181641-.644531q.34375-.214844.34375-.644532q0-.085937-.085937-.472656t-.085938-.644531Zm-13.105469,5.542969l.902344-.730469-.902344.730469q7.820313-6.359375,10.742188-9.066407-1.289063.730469-3.888672,2.212891t-3.845703,2.255859q-.601563.300782-1.740235.966797t-1.697265.966797q-.085938,0-.085938.257813q0,.859375.515625,2.40625Zm-1.203125-8.378907l.085938-.085937-.085938.085937q.085938.085938.085938.171875.816406-.773437,1.761719-1.589843t1.654296-1.417969t1.955079-1.525391t1.761718-1.310547t2.019532-1.439453t1.804687-1.267578t2.041016-1.417969t1.86914-1.289062q-1.890625.558594-5.542968,3.09375Q131.737236,73,128.127861,75.664063q-.515625.34375-.773437.34375-.429688,0-.429688-.429688q0-.042969.042969-.171875t.042969-.214844q.128906-.386718.472656-.859375t.580078-.708984.816406-.730469.666016-.580078q2.277344-1.890625,7.992188-5.972656-7.089844,4.296875-9.839844,5.972656-.429688.257813-.644531.580078t-.236329.644531-.021484.751954-.042969.902343q.171875.515625.171875,1.417969q0,.816406-.171875,1.503906Zm17.402344-16.714843v.085937-.085937q0-.042969.042969-.128907t.042969-.128906q-2.277344,1.632813-3.351563,2.277344q2.019531-1.117188,2.664063-1.246094.257812-.042969.300781-.042969t.107422-.042968.042968-.107422.021485-.214844.128906-.365234Zm-3.351562,13.449218h-.085938.085938q0-.085937-.085938-.085937-.128906,0-.365234.193359t-.494141.429688-.34375.279297q-.34375.257812-1.117187.794921t-1.117188.794922q.085938-.042968.945313-.644531t1.568359-.966797t1.009766-.236328v-.386719-.171875Zm.429687-6.316406v.085938-.085938q.042969-.042969.107422-.128906t.107422-.128906q-5.371094,3.652343-9.96875,7.21875-1.632813,1.203125-3.867188,3.136718-.6875.6875-.6875,1.417969q0,.085938.042969.472656t.042969.6875q1.074219-.472656,2.126953-1.009765t2.212891-1.289063t1.912109-1.246094t2.148437-1.460937l1.955079-1.353516q.171875-.128906,1.138671-.6875t1.503907-1.03125.708984-.988281v-.429687q0-1.632813.515625-3.179688Zm1.976563-4.597656v-.085938.085938-.429688q-.773438.515625-2.857422,1.890625t-3.158203,2.105469-2.728516,1.933594-2.986328,2.298828-2.535156,2.255859q7.089843-5.070312,10.570312-6.875q1.203125-.730468,2.277344-.988281.300781-.085937.558594-.494141t.515625-.966796.34375-.730469Zm-8.292969,1.160156l2.019531-1.246094q-1.675781.988282-2.019531,1.246094q1.890625-1.117187,5.714844-3.373047t5.714843-3.416015q-1.203125.472656-2.320312,1.009765t-2.556641,1.439453-2.041015,1.289063-2.449219,1.632812-2.0625,1.417969Zm-3.4375.429688l.902344-.601563q.085937,0-1.246094.945313l.34375-.34375q1.03125-.730469,11.257812-7.820313-8.25,4.984375-11.601562,6.574219-1.503906.730469-2.191406.902344-.429688.171875-.773438,1.568359t-.558594,1.611328q.730469-.558594,2.126953-1.568359t1.740235-1.267578Zm2.75-3.78125l.859375-.515625q-1.675781.859375-1.675781.945312.300781-.171875.816406-.429687q6.574219-3.695313,18.003906-10.914063-3.136719,1.761719-8.830078,5.048828t-8.056641,4.619141q-.128906.085937-1.697265.945312t-2.427735,1.203125q-.128906.085938-.751953.34375t-.923828.53711-.429687.751953q.730468-.257813,5.113281-2.535156Zm-5.371094,8.636718l-.257812.171875.34375-.171875h-.085938q-.085937.042969-.580078.34375t-.859375.601563-.408203.472656q.515625-.300781,1.503906-.923828t1.460938-.923828q-.601563.300781-1.117188.429687Zm6.144531,7.132813l-1.417968.945312q-.042969,0,.429687-.322265t.966797-.666016.537109-.34375l-.515625.386719q-2.792968,1.847656-5.800781,3.609375-.300781.128906-.923828.429687t-.923828.429688q-.257813.128906-.257813.34375l.042969.214844q.042969.171875.042969.34375q1.289062-.902344,3.802734-2.513672t3.587891-2.341797q1.546875-.902344,3.867187-2.621094l.644532-.429687q.6875-.429688,1.138671-.816407t.494141-.601562q-.515625.386719-5.714844,3.953125Zm1.074219,3.308594l-.730469.644531q1.160157-.902344,1.160157-.988281-.171875.085937-.429688.34375-.171875.171875-6.617187,5.585937q2.0625-1.160156,8.722656-5.199219l.816406-.429687q.816406-.429688,1.353516-.794922t.537109-.537109q-.085937-.515625-.085937-1.503907v-1.503906q-.386719.472656-.816407.945313t-.988281.966796-.902344.794922-1.074218.902344-.945313.773438Zm24.792969-27.972657h.085937-.085937q.515625-.171875.730469-.171875.34375,0,.6875.171875.128906,0,.300781.042969t.300781.042969q.644531-.429688.902344-.6875q2.234375-1.804688,3.695312-3.265625Q164.95208,50.484375,163.877861,51q-.214843.214844-1.589843,1.052734t-1.417969.794922Zm5.285156-4.554687l-.171875.171875.171875-.171875q-.773437.558594-2.40625,1.632812t-2.449219,1.632813q1.332032-.730469,6.1875-3.523438l-.429687-.214843q-.214844,0-.902344.472656Zm4.210938,1.203125q-.515625.300781-.515625.386719l.515625-.386719q-.988282.644531-2.878907,1.912109t-2.835937,1.869141l.257812.085937q0,0,.19336.085938t.107422.042969q.085937,0,.429687-.214844q1.71875-1.074219,2.019531-1.289063q1.632813-.945312,3.265625-2.277343-.085937-.042969-.279297-.107422t-.279296-.107422Zm9.96875,19.464844l.257812-.257813q-.257812.171875-.257812.257813.773437-.515625,1.675781-1.160157.515625-.34375.859375-.515625-.085938-.257812-.085938-.773437v-1.160156-.515625q-2.792968,2.792968-4.039062,4.296875h.171875q.171875,0,.537109-.128907t.53711-.128906q.257812,0,.34375.085938Zm-4.683594-1.589844q.214844-.128906.472656-.257813l.34375-.171875q0,0,.085938-.085937-.902344.429687-.902344.515625q3.78125-2.0625,6.359375-3.609375.472656-.300781.601562-.408203t.128907-.451172.042968-.558594q.085938-.6875.085938-2.019531-3.953125,3.523437-4.8125,4.339844-.085938.085937-.837891.730468t-1.18164,1.138672-.386719.837891Zm6.875-11.257813q.085937.085938.085937.257813q0,.386719-.773437,1.417969-1.332031,1.71875-5.285156,5.113281.515625-.34375,1.933593-1.396485t2.277344-1.611328q.085938-.042968.494141-.300781t.601562-.365234.558594-.214844.623047-.064453q.171875-.859375.171875-1.332031q0-.601563-.128906-1.740235t-.128907-1.611328q-.515625.386719-1.568359,1.181641t-1.611328,1.18164q1.71875-.859375,2.148437-.859375.386719,0,.601563.34375Zm.171875-3.953125l-.171875.171875q.171875-.085937.171875-.171875-.6875.472657-2.728516,1.804688t-3.158203,2.148437q-.128906.085938-.902344.623047t-1.224609.966797-.623047.859375q.601563,0,2.148438-1.03125.429687-.300781.880859-.666016t1.009766-.816406.902343-.708984q.429688-.34375,1.310547-1.03125t1.310547-1.03125q.128906-.085938.34375-.19336t.322266-.171875.236328-.171875.171875-.236328t0-.34375Zm0-2.105468v.085937-.085937q0,.171875-.794922.751953t-1.783203,1.203125-1.03125.666015q-.644531.472657-1.890625,1.289063t-2.234375,1.52539-1.847656,1.396485q1.546875-.988281,6.402343-4.46875q1.71875-1.074219,2.234375-1.332031.171875-.085938.429688-.19336t.300781-.171875.085938-.193359.128906-.472656Zm-11.945313,6.917968l.34375-.171875-.34375.171875q1.761719-.859375,3.953125-2.363281-.429687.214844-2.191406,1.267578t-1.761719,1.095703Zm11.859375-8.078125l-.773437.34375.773437-.34375q-3.265625,1.589844-8.980468,5.371094q1.933593-1.117187,5.457031-3.007812.128906-.042969.601562-.300782t.923828-.49414.923829-.53711.773437-.558593.300781-.472657Zm-6.789062,2.921875Q177.155205,51,177.241143,51q-1.675782,1.074219-1.761719,1.074219.085937-.085938.34375-.257813q3.179687-1.976562,4.855469-2.835937.128906-.085938.730468-.365235t.966797-.558593.322266-.580078q-.042969,0-.128906.042968t-.128907.042969q-.171875,0-.515625-.128906t-.472656-.128906q-.171875,0-.34375.171875-.214844.128906-.666016.451171t-.666015.451172q-2.878906,1.976563-3.78125,2.449219-.214844.644531-1.03125.988281l-.257813.171875q-.128906,0-.322265-.128906t-.322266-.128906q-.472656.601562-1.439453,1.589844t-1.353516,1.460937q.902344-.644531,2.578125-1.71875t1.976563-1.246094Zm-3.050781-.988281h-.171875q-.300782,0-.902344.601563q1.074219-.515625,1.074219-.601563Zm-3.695313,1.847656l-.558594.429688q.214844-.171875.558594-.429688-.34375.257813-1.117187.751953t-1.117188.751954l.214844.085937q.300781,0,.6875-.300781t.794922-.751953.537109-.53711Zm-.902344,2.105469l.902344-.601562q-.214844.085937-.902344.601562.34375.042969.666016.386719t.408203.34375q.171875,0,.429688-.257813.515625-.601562,1.568359-1.740234t1.611328-1.697266q-1.503906.6875-4.683594,2.964844Zm5.457032,5.542969q1.675781-1.203125,1.847656-1.375-.558594.34375-1.246094.34375-.945312,0-.945312-.730469q0-.515625.601562-1.117187-1.160156.773437-1.847656.945312.214844.257813.773437.902344t.816407,1.03125Zm1.160156,2.75q0,.085937.085937.085937.128907,0,.365235-.214843t.49414-.472657.34375-.300781q.515625-.515625,1.160157-1.03125.34375-.300781,1.074218-.988281t1.117188-1.03125q1.675781-1.675781,2.191406-2.40625-.6875.257812-1.482422.6875t-1.310547.794922-1.375.988281-1.246093.880859q-.171875.128907-.666016.408203t-.794922.558594-.300781.53711v.171875q.34375.472656.34375,1.332031Zm2.964844-.085938l-.34375.257813.644531-.429688q-.128906,0-.300781.171875-.085938.085938-.794922.53711t-1.332032.880859-.580078.601563q.085938.429687.257813,1.117187q1.933594-1.933594,5.972656-5.628906-.472656.300781-1.654297,1.18164t-1.86914,1.310547ZM176.553643,68.875h.085937-.171875.085938.6875q.644531,0,1.246093-.6875.34375-.429687,2.792969-3.09375-.6875.386719-2.019531,1.181641t-2.019531,1.18164q-.042969.042969-.429688.236328t-.644531.365235-.257813.300781q.085938.171875.085938.429688v.085937h.214844.34375Zm6.230468.085938q.171875,0,.171875-.171875q0-.085938-.042968-.257813t-.042969-.257812q-.429688.257812-1.117188.773437.128907,0,.408203-.042969t.451172-.042968h.171875ZM169.506768,48.980469q-.085938-.042969-.300782-.171875t-.300781-.171875q-.472656.601562-.902344.945312-.171875.214844-.429687.472657t-.580078.558593-.494141.472657q.085938-.042969.859375-.623047t1.460938-1.052735.6875-.429687Zm-7.21875-2.363281h-.085938.085938q-.171875,0-.472657-.042969t-.429687-.042969q-.6875,0-1.546875.601563-.429688.257812-2.835938,1.933593-.6875.429688-6.488281,4.425782-8.722656,5.84375-12.074219,8.25q3.78125-2.449219,6.960938-3.953125.171875-.042969.472656-.171875t.472656-.171875q.171875-.085938.494141-.515625t.494141-.558594q.386718-.34375,1.933593-.773438.988282-.257812,2.019532-1.160156q1.160156-.773437,1.332031-.945312.988281-.988282,1.589844-.902344.429687,0,.945312.515625.171875-.257813.6875-.601563.945313-.558593,1.417969-.945312.816406-.472656,2.298828-1.482422t2.707031-1.761719t2.384766-1.267578q-.300781-.171875-2.363281-.429687Zm-8.980469-.515625h-.085938.171875-.085937q-.214844,0-.386719-.150391t-.300781-.150391q-.085938,0-.257813.085938-.300781.300781-.730468.300781h-.171875-.085938q-.085937,0-.171875.085938-.257812.214843-.794922.601562t-.794922.601563q-1.074218.859375-3.222656,2.492187t-3.179687,2.449219q-1.71875,1.289062-5.15625,3.93164t-5.15625,3.97461q4.339843-2.535156,12.246093-6.574219q1.890625-.988281,3.888672-2.212891t4.554688-2.90039t3.759765-2.449219q-.171875,0-.451172-.042969t-.601562-.128906-.451172-.128906h-.257812q-.6875,0-.945313-.171875-.386719.386719-1.160156.386719h-.171875Zm-18.390625,9.152343h.171875-.171875q1.160156-.472656,1.417969-.644531q1.503906-.859375,2.019531-1.117187l-.386719-.128907q0,0-.34375-.085937t-.429687.214844q-.171875.128906-.558594.34375t-.558594.34375q-.128906.128906-.494141.537109t-.666015.537109Zm6.703125-4.425781q-.085938.085938-.085938.171875l.171875-.171875h-.085937q-.171875.300781-.730469,1.074219q2.921875-1.804688,7.21875-4.683594-.429687.042969-.988281.322266t-1.160156.708984-.902344.558594q-.601563.34375-1.740235,1.009765t-1.697265,1.009766ZM130.147393,61.3125q.042968-.128906.708984-.580078t.966797-.580078q.945312-.816406,4.167969-3.265625q2.878906-2.191406,6.230468-4.8125-.214843.128906-1.460937.923828t-1.71875,1.074219-1.460938.83789-1.804687.945313-1.632813.6875q-.515625.214844-1.052734.988281t-.708984.945313l-1.160157,1.160156q-.34375.34375-.515625.429687q0,.171875-.236328.666016t-.322265.580078Zm-1.761719,26.640625q.214844.515625.751953,1.546875t.751953,1.546875q1.160156-1.074219,4.425781-3.609375-.214843.128906-4.082031,2.363281-.085937.085938-.34375.085938-.429687,0-.429687-.34375q0-.171875.257812-.429688.171875-.171875.580078-.49414t.580078-.494141q1.203125-.988281,3.587891-2.921875t3.544922-2.878906q-2.191406,1.246094-5.457031,3.265625-.472657.214844-2.320313,1.203125t-1.847656,1.160156Zm4.511719,8.035156q.429687.6875.859375.6875.300781,0,.708984-.322265t.902344-.88086.708984-.730468q-1.503906.902343-1.933594.902343-.128906,0-.558593-.214843-.257813-.128907-.257813-.34375l.257813-.515625q.816406-.6875,2.191406-2.277344.773437-.773438,2.234375-2.320313t2.191406-2.277343q-4.640625,2.664062-9.152344,5.285156.300782.515625.923828,1.503906t.923829,1.503906Zm3.265625,2.707032q.171875.128906.365234.365234t.34375.386719.322266.15039q.257812,0,.429687-.171875.300781-.300781.945313-.923828t.945312-.923828q.558594-.515625,1.611328-1.546875t1.611328-1.546875q-1.761718,1.203125-6.960937,3.953125.042969.042969.193359.128906t.19336.128907Zm2.535156,2.105468q.085937,0,.171875.085938.042969-.34375.257812-.644531t.623047-.601563.6875-.494141.773438-.472656.580078-.322265q-3.4375,1.890625-3.695313,2.019531.34375.171875.601563.429687Zm1.246094.816407h.257812-.257812l1.03125.515625q.429687-.601563,1.589843-1.761719-1.589843,1.074219-2.621093,1.246094Zm6.144531,3.179687q.429687,0,2.019531-1.332031.601563-.386719,2.105469-1.503906q2.191406-1.71875,2.835937-2.363282-1.460937.773438-4.017578,2.556641t-3.716797,2.427734q.085938.042969.322266.128907t.451172.085937Zm6.960937-2.578125q-.128906.042969-2.126953,1.203125t-2.986328,1.804688q.386719,0,.902344.257812.214844-.171875.644531-.537109t.644531-.53711q1.074219-.773437,2.921875-2.191406Zm3.351563,4.039063h-.085938.085938.34375q.472656,0,1.417969-.601563q1.03125-.816406,2.707031-1.847656q1.761719-1.074219,4.876953-3.351563t3.845703-2.792968q-10.097656,6.359375-14.609375,8.679687.085938,0,.214844.042969t.214844.042969q.171875,0,.49414-.085938t.494141-.085937Zm3.78125.300781v-.128906.128906q.042969-.085938.34375-.386719-.429688.128906-.429688.171875q0,.128906.085938.214844Zm4.210937-1.160156h-.171875.171875q.945313.042968,1.439453-.279297t1.22461-1.310547q1.460937-1.847656,2.707031-1.761719.171875-.128906,4.296875-3.265625.730469-.601562,2.019531-1.589844t1.761719-1.375l.515625-.34375q0,0,.666016-.451172t.558593-.451171.408204-.515625q-1.03125.558593-3.373047,1.740234t-4.082032,2.169922-3.201171,2.0625q-.859375.601562-2.642579,1.912109t-3.158203,2.277344-2.664062,1.783203q.34375-.171875,1.246094-.171875h.429687q.171875-.085937.34375-.085937h.171875q.300781,0,.472656-.171875.257813-.171875.859375-.171875Zm3.953125,1.933593h-.085937.085937q.171875-.085937.429688-.085937-.601563-.300781-.859375-.816406-.171875.34375-.171875.558593t.601562.34375Z" transform="matrix(1.208223 0 0 1.160941-17.348116-31.890239)" paint-order="fill markers stroke" fill="#153757" stroke-dashoffset="8"/></svg>
